<svg xmlns="http://www.w3.org/2000/svg" xmlns:xlink="http://www.w3.org/1999/xlink" width="500" zoomAndPan="magnify" viewBox="0 0 375 374.999991" height="500" preserveAspectRatio="xMidYMid meet" version="1.2"><defs><clipPath id="46bcdbb80a"><path d="M 112.828125 186.480469 L 125.96875 186.480469 L 125.96875 219.996094 L 112.828125 219.996094 Z M 112.828125 186.480469 "/></clipPath><clipPath id="35282232b0"><path d="M 120.824219 200.925781 C 119.175781 215.023438 118.800781 218.550781 117.449219 219.523438 C 116.550781 220.199219 114.675781 219.976562 113.851562 219.523438 C 113.25 219.074219 112.949219 218.25 112.875 217.199219 C 112.574219 215.023438 114 209.851562 115.125 206.699219 C 116.175781 203.851562 118.125 201.898438 119.101562 199.050781 C 120.226562 195.675781 119.773438 189.226562 121.199219 187.5 C 121.949219 186.675781 123.148438 186.449219 123.898438 186.601562 C 124.648438 186.75 125.550781 187.648438 125.699219 188.324219 C 125.925781 189.148438 124.949219 190.199219 124.875 191.324219 C 124.800781 192.75 125.699219 194.550781 125.625 196.199219 C 125.625 197.925781 125.101562 199.5 124.5 201.523438 C 123.601562 204.300781 122.101562 209.625 120.449219 211.125 C 119.476562 211.949219 118.125 212.25 117.300781 211.949219 C 116.550781 211.726562 115.800781 210.75 115.648438 210.074219 C 115.5 209.324219 115.800781 208.125 116.324219 207.601562 C 116.851562 207.074219 117.976562 206.699219 118.726562 206.773438 C 119.476562 206.925781 120.375 207.75 120.75 208.351562 C 120.976562 208.875 121.125 209.476562 120.898438 210.074219 C 120.601562 210.824219 119.25 212.023438 118.425781 212.175781 C 117.675781 212.25 116.625 211.648438 116.101562 211.125 C 115.726562 210.675781 115.574219 210.226562 115.574219 209.476562 C 115.648438 207.601562 118.726562 203.175781 119.476562 199.875 C 120.226562 196.574219 119.699219 191.851562 120.226562 189.675781 C 120.523438 188.476562 120.824219 187.648438 121.425781 187.125 C 122.023438 186.601562 123.148438 186.375 123.898438 186.601562 C 124.574219 186.824219 125.398438 187.425781 125.699219 188.324219 C 126.375 190.125 125.625 193.949219 124.800781 197.398438 C 123.449219 202.648438 120.074219 214.125 117.226562 216.375 C 116.023438 217.351562 114.148438 217.726562 113.398438 216.976562 C 111.898438 215.476562 115.273438 202.125 116.476562 199.875 C 116.851562 199.199219 117.226562 198.976562 117.75 198.824219 C 118.199219 198.601562 118.875 198.523438 119.324219 198.824219 C 119.925781 199.125 120.824219 200.925781 120.824219 200.925781 "/></clipPath><clipPath id="4646cf9036"><path d="M 113.050781 216.027344 L 117.3125 216.027344 L 117.3125 219.671875 L 113.050781 219.671875 Z M 113.050781 216.027344 "/></clipPath><clipPath id="870a737b6e"><path d="M 117.300781 217.351562 C 115.425781 220.351562 113.625 219.824219 113.25 219.148438 C 112.875 218.550781 113.175781 216.675781 113.773438 216.226562 C 114.375 215.773438 116.773438 216.375 116.773438 216.375 "/></clipPath><clipPath id="4d23230955"><path d="M 112.847656 218.136719 L 116.109375 218.136719 L 116.109375 220.226562 L 112.847656 220.226562 Z M 112.847656 218.136719 "/></clipPath><clipPath id="66ba8460b2"><path d="M 113.699219 219.074219 C 113.476562 217.949219 116.101562 219.375 116.101562 219.75 C 116.101562 219.898438 115.574219 220.199219 115.5 220.125 C 115.5 220.125 115.875 219.449219 115.875 219.449219 C 115.949219 219.449219 115.875 220.125 115.726562 220.199219 C 115.351562 220.351562 114 219.601562 113.550781 219.226562 C 113.25 219 112.875 218.699219 112.875 218.476562 C 112.875 218.324219 113.398438 218.101562 113.625 218.175781 C 113.851562 218.175781 114.300781 218.625 114.300781 218.773438 C 114.226562 218.925781 113.699219 219.074219 113.699219 219.074219 "/></clipPath><clipPath id="0e1524a71e"><path d="M 113.890625 219 L 114.246094 219 L 114.246094 219.261719 L 113.890625 219.261719 Z M 113.890625 219 "/></clipPath><clipPath id="9b39ae9c27"><path d="M 114.226562 219.148438 C 113.550781 219.449219 114.148438 219 114.148438 219 "/></clipPath><clipPath id="74a86a0d4b"><path d="M 112.253906 216.878906 L 114.226562 216.878906 L 114.226562 219.605469 L 112.253906 219.605469 Z M 112.253906 216.878906 "/></clipPath><clipPath id="b72c79bd96"><path d="M 114.226562 219.449219 C 113.398438 219.898438 112.5 219.074219 112.273438 218.625 C 112.199219 218.25 112.351562 217.648438 112.574219 217.351562 C 112.800781 217.125 113.773438 216.898438 113.773438 216.898438 "/></clipPath><clipPath id="26ee6c0c25"><path d="M 113.277344 217.597656 L 114.242188 217.597656 L 114.242188 218.863281 L 113.277344 218.863281 Z M 113.277344 217.597656 "/></clipPath><clipPath id="ab6b6da77f"><path d="M 114.226562 217.875 C 113.101562 220.125 113.175781 217.800781 113.550781 217.648438 C 113.699219 217.5 114.226562 217.875 114.226562 217.875 "/></clipPath><clipPath id="7a94ec7abf"><path d="M 113 218.90625 L 113.347656 218.90625 L 113.347656 219.1875 L 113 219.1875 Z M 113 218.90625 "/></clipPath><clipPath id="9d2b81c836"><path d="M 113.324219 219.074219 C 112.648438 219.375 113.25 218.925781 113.25 218.925781 "/></clipPath><clipPath id="453152f5a7"><path d="M 112.761719 218.457031 L 113.632812 218.457031 L 113.632812 219.695312 L 112.761719 219.695312 Z M 112.761719 218.457031 "/></clipPath><clipPath id="386e97ef47"><path d="M 113.625 219.675781 C 112.199219 219.375 113.023438 218.476562 113.023438 218.476562 "/></clipPath><clipPath id="d3db78a097"><path d="M 113.078125 219.578125 L 113.421875 219.578125 L 113.421875 219.945312 L 113.078125 219.945312 Z M 113.078125 219.578125 "/></clipPath><clipPath id="f4182efb62"><path d="M 113.398438 219.601562 C 113.175781 220.351562 113.101562 219.601562 113.101562 219.601562 "/></clipPath><clipPath id="ab5ef001f4"><path d="M 112.789062 217.566406 L 117.089844 217.566406 L 117.089844 221.171875 L 112.789062 221.171875 Z M 112.789062 217.566406 "/></clipPath><clipPath id="e11bb4bf7b"><path d="M 117.074219 218.851562 C 115.125 221.851562 113.324219 221.324219 112.949219 220.648438 C 112.574219 220.050781 112.949219 218.175781 113.550781 217.726562 C 114.074219 217.273438 116.476562 217.949219 116.476562 217.949219 "/></clipPath><clipPath id="0cdc6c0c39"><path d="M 111.738281 217.113281 L 116.039062 217.113281 L 116.039062 220.722656 L 111.738281 220.722656 Z M 111.738281 217.113281 "/></clipPath><clipPath id="b3961185d3"><path d="M 116.023438 218.398438 C 114.074219 221.398438 112.273438 220.875 111.898438 220.199219 C 111.523438 219.601562 111.898438 217.726562 112.5 217.273438 C 113.023438 216.824219 115.425781 217.5 115.425781 217.5 "/></clipPath><clipPath id="ec0b5694b9"><path d="M 111.890625 217.566406 L 116.1875 217.566406 L 116.1875 221.171875 L 111.890625 221.171875 Z M 111.890625 217.566406 "/></clipPath><clipPath id="6b422287d5"><path d="M 116.175781 218.851562 C 114.226562 221.851562 112.425781 221.324219 112.050781 220.648438 C 111.675781 220.050781 112.050781 218.175781 112.648438 217.726562 C 113.175781 217.273438 115.574219 217.949219 115.574219 217.949219 "/></clipPath><clipPath id="a1ff5145c1"><path d="M 112.339844 217.566406 L 116.636719 217.566406 L 116.636719 221.171875 L 112.339844 221.171875 Z M 112.339844 217.566406 "/></clipPath><clipPath id="fd7a9f8f61"><path d="M 116.625 218.851562 C 114.675781 221.851562 112.875 221.324219 112.5 220.648438 C 112.125 220.050781 112.5 218.175781 113.101562 217.726562 C 113.625 217.273438 116.023438 217.949219 116.023438 217.949219 "/></clipPath><clipPath id="afef80cf49"><path d="M 112.339844 217.863281 L 116.636719 217.863281 L 116.636719 221.472656 L 112.339844 221.472656 Z M 112.339844 217.863281 "/></clipPath><clipPath id="aa202efafa"><path d="M 116.625 219.148438 C 114.675781 222.148438 112.875 221.625 112.5 220.949219 C 112.125 220.351562 112.5 218.476562 113.101562 218.023438 C 113.625 217.574219 116.023438 218.25 116.023438 218.25 "/></clipPath><clipPath id="5d7f1a847b"><path d="M 120.441406 190.113281 L 124.738281 190.113281 L 124.738281 193.761719 L 120.441406 193.761719 Z M 120.441406 190.113281 "/></clipPath><clipPath id="8dd36401cb"><path d="M 124.726562 191.398438 C 122.773438 194.476562 120.976562 193.875 120.601562 193.273438 C 120.226562 192.601562 120.601562 190.800781 121.199219 190.273438 C 121.726562 189.824219 124.125 190.5 124.125 190.5 "/></clipPath><clipPath id="5c306a63d0"><path d="M 75 181 L 271 181 L 271 229 L 75 229 Z M 75 181 "/></clipPath><clipPath id="67f19ab6ce"><path d="M 191.542969 81.4375 L 311.4375 189.265625 L 195.082031 318.640625 L 75.1875 210.8125 Z M 191.542969 81.4375 "/></clipPath><clipPath id="92b53d4fe2"><path d="M 183.144531 73.886719 L 311.960938 189.738281 L 178.554688 338.074219 L 49.738281 222.21875 Z M 183.144531 73.886719 "/></clipPath><clipPath id="9e03155be0"><path d="M 160.976562 98.789062 L 270.757812 197.519531 L 159.78125 320.914062 L 50.003906 222.183594 Z M 160.976562 98.789062 "/></clipPath><clipPath id="b253679568"><path d="M 277 175 L 310 175 L 310 212 L 277 212 Z M 277 175 "/></clipPath><clipPath id="7554d0ac4b"><path d="M 191.542969 81.4375 L 311.4375 189.265625 L 195.082031 318.640625 L 75.1875 210.8125 Z M 191.542969 81.4375 "/></clipPath><clipPath id="81dd99ee62"><path d="M 183.144531 73.886719 L 311.960938 189.738281 L 178.554688 338.074219 L 49.738281 222.21875 Z M 183.144531 73.886719 "/></clipPath><clipPath id="9f0424e4d1"><path d="M 287.902344 168.097656 L 311.5625 189.378906 L 290.714844 212.558594 L 267.054688 191.277344 Z M 287.902344 168.097656 "/></clipPath><clipPath id="abdb3cdf17"><path d="M 112.527344 180.585938 L 122.398438 180.585938 L 122.398438 196.492188 L 112.527344 196.492188 Z M 112.527344 180.585938 "/></clipPath><clipPath id="90adc56afa"><path d="M 120.523438 185.101562 C 118.800781 193.800781 117.824219 192.449219 117.375 191.699219 C 116.925781 191.023438 116.625 190.273438 116.550781 189.300781 C 116.398438 187.875 116.550781 185.175781 117.074219 183.976562 C 117.449219 183.226562 118.125 182.625 118.726562 182.398438 C 119.25 182.175781 120 182.101562 120.523438 182.398438 C 121.199219 182.773438 121.949219 183.75 122.25 184.800781 C 122.625 186.375 122.25 189.449219 121.351562 191.324219 C 120.601562 193.050781 119.023438 195 117.601562 195.675781 C 116.476562 196.199219 114.824219 196.199219 114.074219 195.824219 C 113.398438 195.449219 113.023438 194.699219 112.800781 193.800781 C 112.425781 192.601562 112.574219 190.800781 112.726562 189.074219 C 112.875 187.050781 113.101562 183.824219 114 182.398438 C 114.675781 181.425781 115.875 180.601562 116.699219 180.601562 C 117.449219 180.601562 118.425781 181.351562 118.800781 181.875 C 119.175781 182.324219 119.25 183 119.175781 183.523438 C 119.101562 184.125 118.875 184.726562 118.5 185.101562 C 117.976562 185.550781 116.851562 186 116.101562 185.925781 C 115.351562 185.773438 114.449219 185.023438 114.074219 184.351562 C 113.773438 183.675781 113.851562 182.476562 114.226562 181.875 C 114.75 181.199219 116.398438 180.449219 117.226562 180.675781 C 118.125 180.898438 118.949219 182.101562 119.175781 183.300781 C 119.625 185.324219 118.199219 191.699219 117 192.375 C 116.398438 192.75 114.898438 192.074219 114.75 191.550781 C 114.601562 191.023438 116.101562 190.273438 116.550781 189.226562 C 117.226562 187.726562 116.699219 184.125 117.675781 183.074219 C 118.351562 182.398438 119.773438 182.101562 120.523438 182.398438 C 121.273438 182.699219 122.023438 183.675781 122.25 184.800781 C 122.625 186.898438 121.050781 192.300781 120.226562 194.175781 C 119.773438 195.148438 119.398438 195.824219 118.726562 196.199219 C 117.898438 196.574219 116.324219 196.574219 115.574219 196.125 C 114.898438 195.601562 114.523438 194.550781 114.375 193.351562 C 114 191.476562 114.375 187.875 114.898438 185.925781 C 115.351562 184.5 115.949219 183.300781 116.699219 182.550781 C 117.226562 182.023438 117.898438 181.5 118.574219 181.574219 C 119.25 181.574219 120.449219 182.324219 120.75 183 C 121.050781 183.601562 120.523438 185.101562 120.523438 185.101562 "/></clipPath><clipPath id="4328dc39dd"><path d="M 208.386719 166.175781 L 217.976562 166.175781 L 217.976562 185.644531 L 208.386719 185.644531 Z M 208.386719 166.175781 "/></clipPath><clipPath id="3c99988e24"><path d="M 214.800781 168.824219 C 214.875 179.101562 216.148438 181.273438 215.550781 181.875 C 215.023438 182.398438 212.550781 182.175781 211.800781 181.351562 C 210.675781 180 211.351562 174.601562 211.800781 172.726562 C 212.023438 171.75 212.324219 171 212.925781 170.625 C 213.601562 170.175781 215.25 170.175781 215.925781 170.625 C 216.523438 171 216.898438 171.824219 217.050781 172.726562 C 217.199219 174.449219 216.148438 178.050781 215.175781 179.925781 C 214.5 181.273438 213.523438 182.851562 212.550781 183.074219 C 211.726562 183.300781 210.601562 182.773438 209.925781 182.101562 C 209.175781 181.199219 208.949219 179.324219 208.726562 177.523438 C 208.425781 175.125 208.273438 170.25 209.023438 168.675781 C 209.324219 168 209.851562 167.625 210.449219 167.476562 C 211.050781 167.25 212.25 167.398438 212.851562 167.773438 C 213.375 168.074219 213.675781 168.601562 213.898438 169.273438 C 214.273438 170.476562 213.75 172.648438 213.976562 174.523438 C 214.273438 176.699219 216.523438 180.449219 215.773438 181.5 C 215.25 182.25 212.851562 182.550781 212.101562 181.875 C 210.898438 180.675781 211.726562 173.476562 212.476562 171.226562 C 212.925781 169.949219 213.449219 169.050781 214.199219 168.675781 C 214.875 168.375 216.074219 168.523438 216.675781 168.976562 C 217.351562 169.5 217.949219 170.851562 217.800781 171.675781 C 217.726562 172.425781 216.898438 173.324219 216.226562 173.625 C 215.550781 173.925781 214.351562 173.851562 213.75 173.476562 C 213.148438 173.023438 212.550781 171.976562 212.476562 171.300781 C 212.476562 170.550781 213 169.425781 213.601562 169.050781 C 214.351562 168.601562 216.148438 168.523438 216.824219 169.125 C 217.5 169.648438 217.875 171.449219 217.648438 172.199219 C 217.425781 172.949219 216.449219 173.699219 215.699219 173.851562 C 214.949219 173.925781 213.824219 173.625 213.300781 173.101562 C 212.773438 172.574219 212.324219 171.300781 212.550781 170.550781 C 212.773438 169.726562 214.050781 168.675781 214.875 168.523438 C 215.625 168.375 216.675781 168.898438 217.199219 169.425781 C 217.648438 169.875 217.726562 170.398438 217.875 171.226562 C 218.101562 172.574219 217.875 174.898438 217.574219 177 C 217.199219 179.476562 216.976562 184.050781 215.550781 185.101562 C 214.648438 185.851562 212.699219 185.625 211.875 185.175781 C 211.199219 184.726562 211.125 183.675781 210.675781 182.699219 C 210.148438 181.199219 209.324219 179.101562 209.023438 177.074219 C 208.648438 174.675781 208.050781 170.925781 208.800781 169.273438 C 209.25 168.300781 210.226562 167.398438 211.050781 167.324219 C 211.875 167.25 213.074219 167.773438 213.675781 168.675781 C 214.875 170.550781 215.023438 179.550781 214.273438 179.925781 C 213.898438 180.074219 213.148438 178.648438 212.476562 178.351562 C 211.800781 178.050781 210.601562 178.5 210.226562 177.976562 C 209.699219 177.148438 211.050781 173.476562 211.875 172.125 C 212.476562 171.148438 213.300781 170.25 214.125 170.175781 C 214.949219 170.101562 216.148438 170.625 216.75 171.523438 C 217.574219 172.949219 217.125 176.851562 216.75 179.101562 C 216.523438 181.050781 216.300781 183.976562 215.25 184.425781 C 214.273438 184.875 211.574219 183.375 210.675781 182.175781 C 209.699219 180.898438 209.851562 178.875 209.773438 176.851562 C 209.699219 174.148438 209.773438 168.675781 210.601562 167.25 C 210.976562 166.648438 211.5 166.425781 211.949219 166.273438 C 212.476562 166.199219 213.148438 166.199219 213.601562 166.5 C 214.199219 166.875 214.800781 168.824219 214.800781 168.824219 "/></clipPath><clipPath id="65ba0a28b0"><path d="M 210.167969 175.929688 L 219 175.929688 L 219 193.480469 L 210.167969 193.480469 Z M 210.167969 175.929688 "/></clipPath><clipPath id="22afe1df39"><path d="M 214.800781 180.074219 C 216.300781 192.449219 215.476562 193.273438 214.648438 193.425781 C 213.898438 193.574219 212.699219 193.199219 212.101562 192.300781 C 210.824219 190.199219 211.273438 180.375 212.398438 177.898438 C 212.925781 176.773438 213.824219 176.101562 214.574219 175.949219 C 215.25 175.875 216.148438 176.175781 216.824219 176.773438 C 217.648438 177.675781 218.175781 179.550781 218.550781 181.425781 C 219 184.050781 219.148438 189.523438 218.625 191.324219 C 218.324219 192.074219 218.023438 192.523438 217.574219 192.824219 C 217.050781 193.199219 216.375 193.425781 215.773438 193.273438 C 215.023438 193.125 213.976562 192.375 213.523438 191.324219 C 212.625 189.226562 212.476562 182.101562 213.675781 180.523438 C 214.351562 179.625 215.925781 179.324219 216.75 179.625 C 217.5 180 218.398438 181.5 218.324219 182.398438 C 218.324219 183.074219 217.648438 184.125 216.976562 184.351562 C 216.226562 184.726562 214.425781 184.5 213.898438 183.898438 C 213.300781 183.300781 213.148438 181.5 213.523438 180.75 C 213.824219 180.074219 214.875 179.476562 215.625 179.476562 C 216.449219 179.476562 217.648438 180.226562 218.25 181.273438 C 219.226562 183.074219 219 188.851562 218.699219 190.726562 C 218.550781 191.550781 218.398438 192 218.023438 192.449219 C 217.648438 192.824219 216.976562 193.199219 216.375 193.273438 C 215.773438 193.351562 215.023438 193.199219 214.574219 192.824219 C 214.125 192.523438 213.75 192.148438 213.523438 191.324219 C 213 189.449219 214.425781 182.925781 213.824219 180.75 C 213.523438 179.699219 212.398438 179.25 212.324219 178.5 C 212.25 177.898438 212.550781 177.226562 213 176.773438 C 213.449219 176.324219 214.5 175.949219 215.175781 175.949219 C 215.773438 176.023438 216.449219 176.398438 216.824219 176.773438 C 217.125 177.226562 217.273438 177.675781 217.425781 178.5 C 217.800781 180.75 217.351562 189.300781 216.675781 191.398438 C 216.449219 192.226562 216.148438 192.601562 215.773438 192.898438 C 215.324219 193.273438 214.648438 193.5 214.125 193.425781 C 213.523438 193.425781 212.925781 193.125 212.476562 192.75 C 212.023438 192.300781 211.800781 191.699219 211.574219 190.800781 C 210.976562 188.625 209.851562 181.800781 210.300781 180 C 210.449219 179.324219 210.824219 178.949219 211.273438 178.648438 C 211.648438 178.425781 212.324219 178.199219 212.851562 178.351562 C 213.523438 178.5 214.800781 180.074219 214.800781 180.074219 "/></clipPath><clipPath id="ec285b4972"><path d="M 246.914062 196.539062 L 253.6875 196.539062 L 253.6875 204.257812 L 246.914062 204.257812 Z M 246.914062 196.539062 "/></clipPath><clipPath id="0c22bb0e85"><path d="M 253.199219 200.25 C 249.75 204.300781 248.851562 204.375 248.324219 204.074219 C 247.648438 203.699219 246.898438 202.273438 246.976562 201.601562 C 247.050781 200.925781 247.726562 200.101562 248.25 199.800781 C 248.851562 199.574219 249.898438 199.574219 250.425781 199.949219 C 251.023438 200.398438 251.699219 201.824219 251.476562 202.574219 C 251.324219 203.25 249.976562 204.226562 249.300781 204.226562 C 248.625 204.300781 247.726562 203.699219 247.351562 203.25 C 247.050781 202.875 246.898438 202.425781 246.976562 201.824219 C 247.050781 200.851562 248.324219 198.898438 249 198 C 249.523438 197.398438 249.976562 196.800781 250.648438 196.648438 C 251.25 196.425781 252.226562 196.574219 252.75 196.875 C 253.199219 197.175781 253.574219 197.699219 253.648438 198.226562 C 253.800781 198.824219 253.125 200.25 253.125 200.25 "/></clipPath><clipPath id="bd36fba60c"><path d="M 250.488281 197.125 L 254.789062 197.125 L 254.789062 200.773438 L 250.488281 200.773438 Z M 250.488281 197.125 "/></clipPath><clipPath id="50ab3b5b23"><path d="M 254.773438 198.449219 C 252.824219 201.449219 251.101562 200.925781 250.648438 200.25 C 250.273438 199.648438 250.648438 197.773438 251.25 197.324219 C 251.773438 196.875 254.175781 197.476562 254.175781 197.476562 "/></clipPath><clipPath id="444f8893fe"><path d="M 250.488281 196.640625 L 254.789062 196.640625 L 254.789062 200.246094 L 250.488281 200.246094 Z M 250.488281 196.640625 "/></clipPath><clipPath id="f648acf0f3"><path d="M 254.773438 197.925781 C 252.824219 200.925781 251.101562 200.398438 250.648438 199.726562 C 250.273438 199.125 250.648438 197.25 251.25 196.800781 C 251.773438 196.351562 254.175781 197.023438 254.175781 197.023438 "/></clipPath><clipPath id="f3620622c8"><path d="M 247.09375 196.375 L 256.292969 196.375 L 256.292969 205.402344 L 247.09375 205.402344 Z M 247.09375 196.375 "/></clipPath><clipPath id="606c099967"><path d="M 255.523438 199.125 C 250.5 203.550781 250.351562 204.898438 249.601562 205.199219 C 249.074219 205.5 248.023438 205.351562 247.648438 204.976562 C 247.273438 204.675781 247.050781 204 247.125 203.550781 C 247.273438 203.023438 248.023438 202.199219 248.550781 202.125 C 249.074219 202.050781 250.050781 202.648438 250.273438 203.175781 C 250.5 203.550781 250.425781 204.375 250.125 204.675781 C 249.75 205.125 248.25 205.425781 247.800781 205.125 C 247.351562 204.824219 247.050781 203.925781 247.199219 203.175781 C 247.648438 201.601562 251.625 197.625 253.351562 196.800781 C 254.25 196.351562 255.300781 196.273438 255.75 196.574219 C 256.125 196.800781 256.351562 197.476562 256.273438 197.925781 C 256.273438 198.300781 255.523438 199.125 255.523438 199.125 "/></clipPath><clipPath id="0b4c6f6102"><path d="M 246.765625 195.839844 L 256.5625 195.839844 L 256.5625 206.308594 L 246.765625 206.308594 Z M 246.765625 195.839844 "/></clipPath><clipPath id="fb699c14a7"><path d="M 255.976562 198.449219 C 250.5 203.851562 250.199219 205.5 249.449219 205.949219 C 248.851562 206.25 247.800781 206.324219 247.425781 205.949219 C 246.976562 205.574219 246.824219 204 247.125 203.550781 C 247.5 203.101562 248.625 202.949219 249.148438 203.101562 C 249.601562 203.25 250.050781 203.851562 250.050781 204.375 C 250.125 204.898438 249.601562 205.875 249.148438 206.101562 C 248.699219 206.398438 247.949219 206.324219 247.574219 206.023438 C 247.125 205.726562 246.75 204.824219 246.824219 204.148438 C 246.898438 203.398438 247.425781 202.726562 248.101562 201.824219 C 249.148438 200.398438 251.773438 197.550781 253.273438 196.648438 C 254.175781 196.125 255.148438 195.75 255.675781 195.898438 C 256.125 196.050781 256.425781 196.648438 256.5 197.101562 C 256.5 197.550781 255.976562 198.449219 255.976562 198.449219 "/></clipPath><clipPath id="25252621ba"><path d="M 246.027344 195.414062 L 256.613281 195.414062 L 256.613281 211.707031 L 246.027344 211.707031 Z M 246.027344 195.414062 "/></clipPath><clipPath id="92654c2b2a"><path d="M 256.425781 197.925781 C 251.023438 205.273438 249.824219 210.898438 248.398438 211.574219 C 247.726562 211.875 246.75 211.425781 246.375 210.976562 C 246.074219 210.675781 246 209.851562 246.148438 209.398438 C 246.300781 208.949219 246.824219 208.425781 247.273438 208.273438 C 247.800781 208.199219 248.550781 208.351562 248.851562 208.648438 C 249.226562 208.949219 249.523438 209.699219 249.449219 210.148438 C 249.449219 210.601562 249 211.273438 248.550781 211.5 C 248.023438 211.726562 246.898438 211.5 246.523438 211.125 C 246.148438 210.824219 246 210.300781 246.074219 209.625 C 246.226562 207.75 248.851562 202.726562 250.5 200.175781 C 251.773438 198.226562 253.5 195.898438 254.699219 195.523438 C 255.300781 195.300781 256.125 195.523438 256.425781 195.898438 C 256.726562 196.273438 256.425781 197.925781 256.425781 197.925781 "/></clipPath><clipPath id="8108b8fb07"><path d="M 240.15625 197.898438 L 246.429688 197.898438 L 246.429688 205.492188 L 240.15625 205.492188 Z M 240.15625 197.898438 "/></clipPath><clipPath id="48f83d92d8"><path d="M 245.699219 200.851562 C 243.074219 203.175781 243.148438 204.976562 242.476562 205.351562 C 242.023438 205.648438 240.898438 205.425781 240.601562 205.050781 C 240.226562 204.675781 240.074219 203.550781 240.375 203.101562 C 240.675781 202.648438 242.175781 202.351562 242.625 202.574219 C 243.074219 202.800781 243.375 203.476562 243.375 203.925781 C 243.375 204.375 243.074219 205.125 242.625 205.273438 C 242.175781 205.5 240.675781 205.351562 240.375 204.75 C 239.851562 204.074219 240.601562 201.601562 241.273438 200.476562 C 241.875 199.5 243.074219 198.75 243.824219 198.300781 C 244.273438 198 244.800781 197.851562 245.175781 197.925781 C 245.625 198 246.300781 198.300781 246.375 198.675781 C 246.601562 199.199219 245.699219 200.851562 245.699219 200.851562 "/></clipPath><clipPath id="528b398a2b"><path d="M 239.71875 195.394531 L 247.226562 195.394531 L 247.226562 205.40625 L 239.71875 205.40625 Z M 239.71875 195.394531 "/></clipPath><clipPath id="45e9d14256"><path d="M 247.199219 197.851562 C 242.851562 203.25 242.925781 204.824219 242.25 205.199219 C 241.800781 205.5 240.675781 205.351562 240.300781 204.976562 C 239.925781 204.601562 239.699219 203.476562 239.925781 203.023438 C 240.148438 202.574219 240.75 202.199219 241.199219 202.125 C 241.648438 202.050781 242.398438 202.351562 242.625 202.726562 C 242.925781 203.023438 243.148438 203.773438 243 204.226562 C 242.925781 204.675781 242.398438 205.273438 241.949219 205.351562 C 241.425781 205.425781 240.148438 204.898438 239.851562 204.226562 C 239.476562 203.476562 240 201.898438 240.601562 200.773438 C 241.425781 199.050781 243.976562 196.050781 245.25 195.523438 C 245.851562 195.300781 246.601562 195.449219 246.976562 195.824219 C 247.273438 196.199219 247.199219 197.851562 247.199219 197.851562 "/></clipPath><clipPath id="7253c557be"><path d="M 146.476562 208.398438 L 153.050781 208.398438 L 153.050781 215.359375 L 146.476562 215.359375 Z M 146.476562 208.398438 "/></clipPath><clipPath id="17d491eeff"><path d="M 148.800781 208.5 C 153.074219 213.898438 152.851562 214.726562 152.476562 215.023438 C 152.023438 215.398438 150.898438 215.398438 150.523438 215.101562 C 150.148438 214.875 149.851562 214.199219 149.851562 213.75 C 149.851562 213.300781 150.226562 212.699219 150.601562 212.476562 C 150.976562 212.175781 151.648438 212.175781 152.101562 212.324219 C 152.476562 212.476562 152.925781 213.074219 153 213.523438 C 153.074219 213.976562 152.925781 214.648438 152.550781 214.949219 C 152.175781 215.25 151.351562 215.476562 150.675781 215.175781 C 149.476562 214.726562 147.074219 211.949219 146.625 210.601562 C 146.398438 209.851562 146.476562 208.949219 146.773438 208.574219 C 147.148438 208.273438 148.800781 208.5 148.800781 208.5 "/></clipPath><clipPath id="afc45ebb5e"><path d="M 145.609375 209.113281 L 154.367188 209.113281 L 154.367188 216.558594 L 145.609375 216.558594 Z M 145.609375 209.113281 "/></clipPath><clipPath id="b9624e1dde"><path d="M 152.476562 216.523438 C 148.5 214.648438 146.101562 212.699219 145.726562 211.574219 C 145.5 210.824219 145.648438 210 146.023438 209.550781 C 146.324219 209.25 147.074219 209.101562 147.523438 209.175781 C 147.898438 209.25 148.5 209.699219 148.648438 210.148438 C 148.875 210.601562 148.800781 211.273438 148.5 211.648438 C 148.273438 212.023438 147.601562 212.398438 147.148438 212.398438 C 146.699219 212.398438 146.023438 212.101562 145.800781 211.726562 C 145.574219 211.273438 145.574219 210.074219 145.875 209.699219 C 146.324219 209.324219 147.523438 209.25 148.273438 209.550781 C 149.25 210 149.925781 212.023438 150.976562 212.851562 C 151.875 213.523438 153.675781 213.523438 154.125 214.199219 C 154.425781 214.648438 154.425781 215.550781 154.125 215.925781 C 153.824219 216.300781 152.476562 216.523438 152.476562 216.523438 "/></clipPath><clipPath id="139a0bb88f"><path d="M 157.554688 204.65625 L 177.496094 204.65625 L 177.496094 218.945312 L 157.554688 218.945312 Z M 157.554688 204.65625 "/></clipPath><clipPath id="9d86f7563f"><path d="M 159.300781 215.476562 C 166.5 214.425781 167.773438 213.449219 169.199219 212.101562 C 171.074219 210.375 173.550781 205.726562 174.824219 204.976562 C 175.273438 204.675781 175.574219 204.675781 175.949219 204.75 C 176.398438 204.824219 177.074219 205.199219 177.300781 205.648438 C 177.523438 206.101562 177.601562 206.925781 177.300781 207.300781 C 176.925781 207.824219 175.351562 208.273438 174.824219 207.976562 C 174.300781 207.675781 173.925781 205.949219 174.226562 205.5 C 174.601562 204.976562 176.25 204.75 176.773438 205.050781 C 177.300781 205.351562 177.601562 206.25 177.375 207.148438 C 176.925781 209.023438 173.023438 213.300781 170.398438 215.324219 C 168.148438 217.050781 165.300781 218.398438 163.125 218.773438 C 161.324219 219.074219 159.074219 218.925781 158.25 218.25 C 157.726562 217.875 157.5 217.125 157.648438 216.675781 C 157.800781 216.148438 159.300781 215.476562 159.300781 215.476562 "/></clipPath><clipPath id="67ce0ac3ce"><path d="M 143 205 L 158 205 L 158 222 L 143 222 Z M 143 205 "/></clipPath><clipPath id="2e9533023d"><path d="M 141.226562 215.683594 L 148.375 205.128906 L 157.070312 211.015625 L 149.921875 221.570312 Z M 141.226562 215.683594 "/></clipPath><clipPath id="e6b251b0f0"><path d="M 38.785156 234.234375 L 135.914062 90.773438 L 301.113281 202.621094 L 203.980469 346.082031 Z M 38.785156 234.234375 "/></clipPath><clipPath id="f8fd55b5bb"><path d="M 66.488281 252.785156 L 149.265625 130.523438 L 286.6875 223.566406 L 203.910156 345.828125 Z M 66.488281 252.785156 "/></clipPath><clipPath id="2c2700825c"><path d="M 155 209 L 169 209 L 169 224 L 155 224 Z M 155 209 "/></clipPath><clipPath id="d81e6b07c8"><path d="M 158.519531 223.839844 L 155.625 211.425781 L 165.851562 209.039062 L 168.746094 221.457031 Z M 158.519531 223.839844 "/></clipPath><clipPath id="ca715d8703"><path d="M 102.5625 311.632812 L 63.226562 142.90625 L 257.515625 97.613281 L 296.851562 266.339844 Z M 102.5625 311.632812 "/></clipPath><clipPath id="d2ebafaa16"><path d="M 134.992188 303.894531 L 101.46875 160.105469 L 263.09375 122.425781 L 296.613281 266.21875 Z M 134.992188 303.894531 "/></clipPath><clipPath id="4a6c422c2d"><path d="M 166 202 L 184 202 L 184 216 L 166 216 Z M 166 202 "/></clipPath><clipPath id="44a41a4cf1"><path d="M 176.796875 218.425781 L 166.640625 210.722656 L 172.984375 202.355469 L 183.144531 210.0625 Z M 176.796875 218.425781 "/></clipPath><clipPath id="e798b1fdb7"><path d="M 189.808594 321.71875 L 51.78125 217.007812 L 172.355469 58.070312 L 310.382812 162.78125 Z M 189.808594 321.71875 "/></clipPath><clipPath id="a805467f5f"><path d="M 209.820312 295.054688 L 92.191406 205.816406 L 192.496094 73.601562 L 310.121094 162.839844 Z M 209.820312 295.054688 "/></clipPath></defs><g id="15fdfabd74"><g style="fill:#ebe497;fill-opacity:1;"><g transform="translate(7.318532, 220.259116)"><path style="stroke:none" d="M 29.078125 0.375 C 28.585938 0.375 27.644531 0.328125 26.25 0.234375 C 24.851562 0.140625 23.785156 0.0625 23.046875 0 C 22.421875 -0.125 21.859375 -0.398438 21.359375 -0.828125 C 20.867188 -1.265625 20.65625 -1.796875 20.71875 -2.421875 C 20.78125 -4.335938 20.890625 -6.78125 21.046875 -9.75 C 21.203125 -12.726562 21.359375 -15.953125 21.515625 -19.421875 C 21.671875 -22.890625 21.820312 -26.390625 21.96875 -29.921875 C 22.125 -33.453125 22.28125 -36.734375 22.4375 -39.765625 C 22.59375 -42.804688 22.703125 -45.378906 22.765625 -47.484375 C 22.890625 -51.691406 21.492188 -53.796875 18.578125 -53.796875 C 15.921875 -53.796875 13.289062 -53.113281 10.6875 -51.75 C 8.082031 -50.394531 6.128906 -48.632812 4.828125 -46.46875 C 4.210938 -45.46875 3.4375 -45 2.5 -45.0625 C 1.570312 -45.125 1.109375 -45.835938 1.109375 -47.203125 C 1.109375 -48.066406 1.125 -49.210938 1.15625 -50.640625 C 1.1875 -52.066406 1.234375 -53.566406 1.296875 -55.140625 C 1.359375 -56.722656 1.40625 -58.195312 1.4375 -59.5625 C 1.46875 -60.925781 1.515625 -61.976562 1.578125 -62.71875 C 1.703125 -63.53125 1.976562 -64.101562 2.40625 -64.4375 C 2.84375 -64.78125 3.34375 -64.984375 3.90625 -65.046875 C 5.820312 -65.234375 8.25 -65.34375 11.1875 -65.375 C 14.132812 -65.40625 17.1875 -65.421875 20.34375 -65.421875 C 23.507812 -65.421875 26.332031 -65.421875 28.8125 -65.421875 C 30.476562 -65.421875 32.441406 -65.421875 34.703125 -65.421875 C 36.960938 -65.421875 39.269531 -65.40625 41.625 -65.375 C 43.976562 -65.34375 46.222656 -65.3125 48.359375 -65.28125 C 50.503906 -65.25 52.253906 -65.171875 53.609375 -65.046875 C 55.035156 -64.921875 55.84375 -64.144531 56.03125 -62.71875 C 56.09375 -61.976562 56.15625 -60.925781 56.21875 -59.5625 C 56.28125 -58.195312 56.328125 -56.707031 56.359375 -55.09375 C 56.390625 -53.488281 56.421875 -51.972656 56.453125 -50.546875 C 56.484375 -49.117188 56.5 -48.003906 56.5 -47.203125 C 56.5 -45.835938 56.03125 -45.125 55.09375 -45.0625 C 54.164062 -45 53.394531 -45.46875 52.78125 -46.46875 C 51.539062 -48.632812 49.773438 -50.394531 47.484375 -51.75 C 45.191406 -53.113281 42.46875 -53.796875 39.3125 -53.796875 C 36.394531 -53.796875 35 -51.691406 35.125 -47.484375 C 35.1875 -45.441406 35.296875 -42.898438 35.453125 -39.859375 C 35.609375 -36.828125 35.773438 -33.546875 35.953125 -30.015625 C 36.140625 -26.484375 36.3125 -22.96875 36.46875 -19.46875 C 36.625 -15.96875 36.796875 -12.726562 36.984375 -9.75 C 37.171875 -6.78125 37.296875 -4.335938 37.359375 -2.421875 C 37.359375 -1.796875 37.109375 -1.25 36.609375 -0.78125 C 36.117188 -0.320312 35.53125 -0.03125 34.84375 0.09375 C 34.101562 0.15625 33.082031 0.21875 31.78125 0.28125 C 30.476562 0.34375 29.578125 0.375 29.078125 0.375 Z M 29.078125 0.375 "/></g></g><g style="fill:#ebe497;fill-opacity:1;"><g transform="translate(62.791247, 220.259116)"><path style="stroke:none" d="M 9.484375 0.375 C 8.984375 0.375 8.207031 0.34375 7.15625 0.28125 C 6.101562 0.21875 5.175781 0.125 4.375 0 C 3.8125 -0.125 3.328125 -0.398438 2.921875 -0.828125 C 2.523438 -1.265625 2.328125 -1.859375 2.328125 -2.609375 C 2.328125 -7.992188 2.34375 -12.757812 2.375 -16.90625 C 2.40625 -21.0625 2.453125 -24.859375 2.515625 -28.296875 C 2.578125 -31.734375 2.679688 -35.046875 2.828125 -38.234375 C 2.984375 -41.421875 3.1875 -44.75 3.4375 -48.21875 C 3.625 -49.582031 4.304688 -50.359375 5.484375 -50.546875 C 6.160156 -50.671875 6.960938 -50.765625 7.890625 -50.828125 C 8.828125 -50.890625 9.695312 -50.921875 10.5 -50.921875 C 11.238281 -50.921875 12.164062 -50.890625 13.28125 -50.828125 C 14.394531 -50.765625 15.234375 -50.671875 15.796875 -50.546875 C 16.535156 -50.421875 17.109375 -50.125 17.515625 -49.65625 C 17.921875 -49.195312 18.03125 -48.660156 17.84375 -48.046875 C 17.53125 -46.867188 17.265625 -45.8125 17.046875 -44.875 C 16.828125 -43.945312 16.71875 -42.863281 16.71875 -41.625 C 16.71875 -40.695312 16.96875 -40.15625 17.46875 -40 C 17.96875 -39.84375 18.398438 -40.257812 18.765625 -41.25 C 20.253906 -44.78125 22.375 -47.320312 25.125 -48.875 C 27.882812 -50.425781 30.96875 -51.203125 34.375 -51.203125 C 35.800781 -51.203125 37.289062 -51.03125 38.84375 -50.6875 C 40.394531 -50.34375 41.664062 -49.894531 42.65625 -49.34375 C 43.894531 -48.65625 44.515625 -47.695312 44.515625 -46.46875 C 44.515625 -44.539062 44.5 -42.753906 44.46875 -41.109375 C 44.4375 -39.472656 44.359375 -37.664062 44.234375 -35.6875 C 44.171875 -34.507812 43.6875 -33.796875 42.78125 -33.546875 C 41.882812 -33.296875 41.097656 -33.539062 40.421875 -34.28125 C 38.742188 -35.707031 36.992188 -36.679688 35.171875 -37.203125 C 33.347656 -37.734375 31.503906 -38 29.640625 -38 C 27.347656 -38 25.195312 -37.363281 23.1875 -36.09375 C 21.175781 -34.820312 19.550781 -32.992188 18.3125 -30.609375 C 17.070312 -28.234375 16.453125 -25.367188 16.453125 -22.015625 C 16.453125 -19.660156 16.523438 -17.226562 16.671875 -14.71875 C 16.828125 -12.21875 17 -9.894531 17.1875 -7.75 C 17.375 -5.613281 17.5 -3.898438 17.5625 -2.609375 C 17.625 -1.796875 17.421875 -1.171875 16.953125 -0.734375 C 16.492188 -0.304688 15.984375 -0.03125 15.421875 0.09375 C 14.742188 0.15625 13.832031 0.21875 12.6875 0.28125 C 11.539062 0.34375 10.472656 0.375 9.484375 0.375 Z M 9.484375 0.375 "/></g></g><g style="fill:#ebe497;fill-opacity:1;"><g transform="translate(108.879229, 220.259116)"><path style="stroke:none" d="M 10.03125 -55.375 C 7.738281 -55.375 5.863281 -55.992188 4.40625 -57.234375 C 2.957031 -58.472656 2.234375 -60.054688 2.234375 -61.984375 C 2.234375 -63.960938 2.957031 -65.570312 4.40625 -66.8125 C 5.863281 -68.050781 7.738281 -68.671875 10.03125 -68.671875 C 12.382812 -68.671875 14.289062 -68.050781 15.75 -66.8125 C 17.207031 -65.570312 17.9375 -63.960938 17.9375 -61.984375 C 17.9375 -60.054688 17.207031 -58.472656 15.75 -57.234375 C 14.289062 -55.992188 12.382812 -55.375 10.03125 -55.375 Z M 10.21875 0.375 C 9.726562 0.375 8.925781 0.359375 7.8125 0.328125 C 6.695312 0.296875 5.734375 0.1875 4.921875 0 C 4.367188 -0.125 3.890625 -0.414062 3.484375 -0.875 C 3.078125 -1.34375 2.875 -1.945312 2.875 -2.6875 C 2.875 -8.082031 2.890625 -12.835938 2.921875 -16.953125 C 2.953125 -21.078125 3 -24.859375 3.0625 -28.296875 C 3.125 -31.734375 3.21875 -35.046875 3.34375 -38.234375 C 3.46875 -41.421875 3.65625 -44.75 3.90625 -48.21875 C 3.96875 -49.03125 4.148438 -49.601562 4.453125 -49.9375 C 4.765625 -50.28125 5.234375 -50.484375 5.859375 -50.546875 C 6.535156 -50.671875 7.320312 -50.765625 8.21875 -50.828125 C 9.125 -50.890625 9.820312 -50.921875 10.3125 -50.921875 C 10.75 -50.921875 11.367188 -50.890625 12.171875 -50.828125 C 12.972656 -50.765625 13.6875 -50.671875 14.3125 -50.546875 C 14.925781 -50.421875 15.390625 -50.203125 15.703125 -49.890625 C 16.015625 -49.585938 16.203125 -49.03125 16.265625 -48.21875 C 16.515625 -44.75 16.695312 -41.421875 16.8125 -38.234375 C 16.9375 -35.046875 17.03125 -31.734375 17.09375 -28.296875 C 17.15625 -24.859375 17.203125 -21.0625 17.234375 -16.90625 C 17.265625 -12.757812 17.28125 -7.992188 17.28125 -2.609375 C 17.28125 -1.859375 17.078125 -1.265625 16.671875 -0.828125 C 16.273438 -0.398438 15.796875 -0.125 15.234375 0 C 14.429688 0.125 13.519531 0.21875 12.5 0.28125 C 11.476562 0.34375 10.71875 0.375 10.21875 0.375 Z M 10.21875 0.375 "/></g></g><g style="fill:#ebe497;fill-opacity:1;"><g transform="translate(129.042724, 220.259116)"><path style="stroke:none" d="M 9.109375 21.75 C 8.671875 21.75 7.925781 21.703125 6.875 21.609375 C 5.820312 21.515625 4.957031 21.4375 4.28125 21.375 C 2.976562 21.1875 2.328125 20.410156 2.328125 19.046875 C 2.328125 15.203125 2.34375 10.585938 2.375 5.203125 C 2.40625 -0.179688 2.492188 -5.957031 2.640625 -12.125 C 2.796875 -18.289062 2.984375 -24.453125 3.203125 -30.609375 C 3.421875 -36.773438 3.71875 -42.554688 4.09375 -47.953125 C 4.21875 -49.492188 4.957031 -50.359375 6.3125 -50.546875 C 7.0625 -50.671875 7.960938 -50.765625 9.015625 -50.828125 C 10.066406 -50.890625 10.8125 -50.921875 11.25 -50.921875 C 11.675781 -50.921875 12.492188 -50.890625 13.703125 -50.828125 C 14.910156 -50.765625 15.859375 -50.671875 16.546875 -50.546875 C 17.160156 -50.484375 17.664062 -50.21875 18.0625 -49.75 C 18.46875 -49.289062 18.609375 -48.691406 18.484375 -47.953125 C 18.367188 -47.328125 18.25 -46.671875 18.125 -45.984375 C 18 -45.304688 17.90625 -44.691406 17.84375 -44.140625 C 17.78125 -43.210938 17.960938 -42.6875 18.390625 -42.5625 C 18.828125 -42.4375 19.265625 -42.773438 19.703125 -43.578125 C 21.367188 -45.867188 23.566406 -47.726562 26.296875 -49.15625 C 29.023438 -50.582031 31.78125 -51.296875 34.5625 -51.296875 C 38.46875 -51.296875 41.921875 -50.332031 44.921875 -48.40625 C 47.929688 -46.488281 50.285156 -43.640625 51.984375 -39.859375 C 53.691406 -36.078125 54.546875 -31.335938 54.546875 -25.640625 C 54.546875 -20.128906 53.628906 -15.390625 51.796875 -11.421875 C 49.972656 -7.460938 47.492188 -4.441406 44.359375 -2.359375 C 41.234375 -0.285156 37.722656 0.75 33.828125 0.75 C 30.546875 0.75 27.476562 -0.0078125 24.625 -1.53125 C 21.769531 -3.050781 19.570312 -5.144531 18.03125 -7.8125 C 17.59375 -8.613281 17.171875 -8.9375 16.765625 -8.78125 C 16.367188 -8.625 16.140625 -8.082031 16.078125 -7.15625 C 16.015625 -5.414062 16 -3.367188 16.03125 -1.015625 C 16.0625 1.335938 16.125 3.75 16.21875 6.21875 C 16.3125 8.695312 16.429688 11.050781 16.578125 13.28125 C 16.734375 15.519531 16.90625 17.410156 17.09375 18.953125 C 17.21875 19.640625 17.046875 20.179688 16.578125 20.578125 C 16.117188 20.984375 15.578125 21.25 14.953125 21.375 C 14.273438 21.4375 13.253906 21.515625 11.890625 21.609375 C 10.523438 21.703125 9.597656 21.75 9.109375 21.75 Z M 28.90625 -10.40625 C 32.550781 -10.40625 35.535156 -11.722656 37.859375 -14.359375 C 40.179688 -16.992188 41.34375 -20.601562 41.34375 -25.1875 C 41.34375 -29.957031 40.164062 -33.671875 37.8125 -36.328125 C 35.457031 -38.992188 32.488281 -40.328125 28.90625 -40.328125 C 25.425781 -40.328125 22.476562 -38.992188 20.0625 -36.328125 C 17.65625 -33.671875 16.453125 -29.957031 16.453125 -25.1875 C 16.453125 -20.601562 17.628906 -16.992188 19.984375 -14.359375 C 22.335938 -11.722656 25.3125 -10.40625 28.90625 -10.40625 Z M 28.90625 -10.40625 "/></g></g><g style="fill:#ebe497;fill-opacity:1;"><g transform="translate(185.258897, 220.259116)"><path style="stroke:none" d="M 29.078125 0.375 C 28.585938 0.375 27.644531 0.328125 26.25 0.234375 C 24.851562 0.140625 23.785156 0.0625 23.046875 0 C 22.421875 -0.125 21.859375 -0.398438 21.359375 -0.828125 C 20.867188 -1.265625 20.65625 -1.796875 20.71875 -2.421875 C 20.78125 -4.335938 20.890625 -6.78125 21.046875 -9.75 C 21.203125 -12.726562 21.359375 -15.953125 21.515625 -19.421875 C 21.671875 -22.890625 21.820312 -26.390625 21.96875 -29.921875 C 22.125 -33.453125 22.28125 -36.734375 22.4375 -39.765625 C 22.59375 -42.804688 22.703125 -45.378906 22.765625 -47.484375 C 22.890625 -51.691406 21.492188 -53.796875 18.578125 -53.796875 C 15.921875 -53.796875 13.289062 -53.113281 10.6875 -51.75 C 8.082031 -50.394531 6.128906 -48.632812 4.828125 -46.46875 C 4.210938 -45.46875 3.4375 -45 2.5 -45.0625 C 1.570312 -45.125 1.109375 -45.835938 1.109375 -47.203125 C 1.109375 -48.066406 1.125 -49.210938 1.15625 -50.640625 C 1.1875 -52.066406 1.234375 -53.566406 1.296875 -55.140625 C 1.359375 -56.722656 1.40625 -58.195312 1.4375 -59.5625 C 1.46875 -60.925781 1.515625 -61.976562 1.578125 -62.71875 C 1.703125 -63.53125 1.976562 -64.101562 2.40625 -64.4375 C 2.84375 -64.78125 3.34375 -64.984375 3.90625 -65.046875 C 5.820312 -65.234375 8.25 -65.34375 11.1875 -65.375 C 14.132812 -65.40625 17.1875 -65.421875 20.34375 -65.421875 C 23.507812 -65.421875 26.332031 -65.421875 28.8125 -65.421875 C 30.476562 -65.421875 32.441406 -65.421875 34.703125 -65.421875 C 36.960938 -65.421875 39.269531 -65.40625 41.625 -65.375 C 43.976562 -65.34375 46.222656 -65.3125 48.359375 -65.28125 C 50.503906 -65.25 52.253906 -65.171875 53.609375 -65.046875 C 55.035156 -64.921875 55.84375 -64.144531 56.03125 -62.71875 C 56.09375 -61.976562 56.15625 -60.925781 56.21875 -59.5625 C 56.28125 -58.195312 56.328125 -56.707031 56.359375 -55.09375 C 56.390625 -53.488281 56.421875 -51.972656 56.453125 -50.546875 C 56.484375 -49.117188 56.5 -48.003906 56.5 -47.203125 C 56.5 -45.835938 56.03125 -45.125 55.09375 -45.0625 C 54.164062 -45 53.394531 -45.46875 52.78125 -46.46875 C 51.539062 -48.632812 49.773438 -50.394531 47.484375 -51.75 C 45.191406 -53.113281 42.46875 -53.796875 39.3125 -53.796875 C 36.394531 -53.796875 35 -51.691406 35.125 -47.484375 C 35.1875 -45.441406 35.296875 -42.898438 35.453125 -39.859375 C 35.609375 -36.828125 35.773438 -33.546875 35.953125 -30.015625 C 36.140625 -26.484375 36.3125 -22.96875 36.46875 -19.46875 C 36.625 -15.96875 36.796875 -12.726562 36.984375 -9.75 C 37.171875 -6.78125 37.296875 -4.335938 37.359375 -2.421875 C 37.359375 -1.796875 37.109375 -1.25 36.609375 -0.78125 C 36.117188 -0.320312 35.53125 -0.03125 34.84375 0.09375 C 34.101562 0.15625 33.082031 0.21875 31.78125 0.28125 C 30.476562 0.34375 29.578125 0.375 29.078125 0.375 Z M 29.078125 0.375 "/></g></g><g style="fill:#ebe497;fill-opacity:1;"><g transform="translate(237.200483, 220.259116)"><path style="stroke:none" d="M 17.375 0.75 C 12.664062 0.75 8.867188 -0.363281 5.984375 -2.59375 C 3.109375 -4.832031 1.671875 -8.582031 1.671875 -13.84375 C 1.671875 -18.488281 3.328125 -22.160156 6.640625 -24.859375 C 9.953125 -27.554688 14.519531 -29.398438 20.34375 -30.390625 C 25.675781 -31.128906 29.425781 -31.882812 31.59375 -32.65625 C 33.757812 -33.4375 34.84375 -34.660156 34.84375 -36.328125 C 34.84375 -37.316406 34.160156 -38.242188 32.796875 -39.109375 C 31.429688 -39.984375 29.109375 -40.421875 25.828125 -40.421875 C 23.046875 -40.421875 20.164062 -39.984375 17.1875 -39.109375 C 14.21875 -38.242188 11.617188 -36.820312 9.390625 -34.84375 C 8.703125 -33.851562 7.910156 -33.570312 7.015625 -34 C 6.117188 -34.4375 5.703125 -35.335938 5.765625 -36.703125 C 5.828125 -37.378906 5.914062 -38.320312 6.03125 -39.53125 C 6.15625 -40.738281 6.296875 -41.960938 6.453125 -43.203125 C 6.609375 -44.441406 6.71875 -45.375 6.78125 -46 C 6.96875 -47.476562 7.585938 -48.4375 8.640625 -48.875 C 13.785156 -50.488281 19.363281 -51.296875 25.375 -51.296875 C 32.488281 -51.296875 38.015625 -49.757812 41.953125 -46.6875 C 45.890625 -43.625 48.164062 -38.71875 48.78125 -31.96875 C 48.96875 -29.613281 49.15625 -26.703125 49.34375 -23.234375 C 49.53125 -19.765625 49.710938 -16.234375 49.890625 -12.640625 C 50.078125 -9.046875 50.234375 -5.820312 50.359375 -2.96875 C 50.359375 -1.363281 49.492188 -0.40625 47.765625 -0.09375 C 47.140625 0.09375 46.363281 0.21875 45.4375 0.28125 C 44.507812 0.34375 43.613281 0.375 42.75 0.375 C 42 0.375 41.050781 0.34375 39.90625 0.28125 C 38.757812 0.21875 37.816406 0.09375 37.078125 -0.09375 C 36.273438 -0.21875 35.625 -0.570312 35.125 -1.15625 C 34.625 -1.75 34.4375 -2.445312 34.5625 -3.25 C 34.6875 -3.875 34.828125 -4.679688 34.984375 -5.671875 C 35.140625 -6.660156 35.25 -7.648438 35.3125 -8.640625 C 35.4375 -9.503906 35.234375 -10.015625 34.703125 -10.171875 C 34.179688 -10.328125 33.734375 -10.003906 33.359375 -9.203125 C 31.929688 -6.160156 29.726562 -3.738281 26.75 -1.9375 C 23.78125 -0.144531 20.65625 0.75 17.375 0.75 Z M 23.6875 -10.78125 C 25.238281 -10.78125 26.863281 -11.179688 28.5625 -11.984375 C 30.269531 -12.785156 31.710938 -13.945312 32.890625 -15.46875 C 34.066406 -16.988281 34.65625 -18.832031 34.65625 -21 C 34.65625 -22.488281 34.207031 -23.710938 33.3125 -24.671875 C 32.414062 -25.628906 30.882812 -26.109375 28.71875 -26.109375 C 26.539062 -26.109375 24.460938 -25.703125 22.484375 -24.890625 C 20.503906 -24.085938 18.894531 -22.988281 17.65625 -21.59375 C 16.414062 -20.207031 15.796875 -18.554688 15.796875 -16.640625 C 15.796875 -14.523438 16.414062 -13.019531 17.65625 -12.125 C 18.894531 -11.226562 20.90625 -10.78125 23.6875 -10.78125 Z M 23.6875 -10.78125 "/></g></g><g style="fill:#ebe497;fill-opacity:1;"><g transform="translate(289.699898, 220.259116)"><path style="stroke:none" d="M 10.21875 0.375 C 9.539062 0.375 8.628906 0.34375 7.484375 0.28125 C 6.335938 0.21875 5.390625 0.125 4.640625 0 C 3.285156 -0.3125 2.609375 -1.179688 2.609375 -2.609375 C 2.609375 -7.992188 2.632812 -13.582031 2.6875 -19.375 C 2.75 -25.164062 2.828125 -30.847656 2.921875 -36.421875 C 3.015625 -41.992188 3.171875 -47.210938 3.390625 -52.078125 C 3.609375 -56.941406 3.84375 -61.109375 4.09375 -64.578125 C 4.28125 -65.941406 5.050781 -66.71875 6.40625 -66.90625 C 7.09375 -67.03125 7.867188 -67.125 8.734375 -67.1875 C 9.597656 -67.25 10.40625 -67.28125 11.15625 -67.28125 C 12.019531 -67.28125 13.039062 -67.25 14.21875 -67.1875 C 15.394531 -67.125 16.289062 -67.03125 16.90625 -66.90625 C 17.59375 -66.84375 18.132812 -66.546875 18.53125 -66.015625 C 18.9375 -65.492188 19.078125 -64.890625 18.953125 -64.203125 C 18.460938 -60.304688 18.046875 -55.738281 17.703125 -50.5 C 17.359375 -45.269531 17.109375 -39.800781 16.953125 -34.09375 C 16.796875 -28.394531 16.765625 -22.820312 16.859375 -17.375 C 16.953125 -11.925781 17.15625 -7.003906 17.46875 -2.609375 C 17.53125 -1.859375 17.359375 -1.25 16.953125 -0.78125 C 16.554688 -0.320312 16.046875 -0.03125 15.421875 0.09375 C 14.679688 0.15625 13.800781 0.21875 12.78125 0.28125 C 11.757812 0.34375 10.90625 0.375 10.21875 0.375 Z M 10.21875 0.375 "/></g></g><g style="fill:#ebe497;fill-opacity:1;"><g transform="translate(311.071342, 220.259116)"><path style="stroke:none" d="M 10.3125 0.375 C 9.632812 0.375 8.722656 0.34375 7.578125 0.28125 C 6.429688 0.21875 5.484375 0.125 4.734375 0 C 3.316406 -0.3125 2.609375 -1.179688 2.609375 -2.609375 C 2.609375 -7.992188 2.632812 -13.582031 2.6875 -19.375 C 2.75 -25.164062 2.828125 -30.847656 2.921875 -36.421875 C 3.015625 -41.992188 3.171875 -47.210938 3.390625 -52.078125 C 3.609375 -56.941406 3.84375 -61.109375 4.09375 -64.578125 C 4.28125 -65.941406 5.050781 -66.71875 6.40625 -66.90625 C 7.09375 -67.03125 7.867188 -67.125 8.734375 -67.1875 C 9.597656 -67.25 10.40625 -67.28125 11.15625 -67.28125 C 12.019531 -67.28125 13.039062 -67.25 14.21875 -67.1875 C 15.394531 -67.125 16.289062 -67.03125 16.90625 -66.90625 C 17.59375 -66.84375 18.132812 -66.546875 18.53125 -66.015625 C 18.9375 -65.492188 19.078125 -64.890625 18.953125 -64.203125 C 18.703125 -62.160156 18.375 -59.53125 17.96875 -56.3125 C 17.570312 -53.09375 17.21875 -49.765625 16.90625 -46.328125 C 16.601562 -42.890625 16.453125 -39.804688 16.453125 -37.078125 C 16.453125 -35.523438 16.851562 -34.253906 17.65625 -33.265625 C 18.457031 -32.273438 19.414062 -31.78125 20.53125 -31.78125 C 23.382812 -31.78125 26.035156 -32.566406 28.484375 -34.140625 C 30.929688 -35.722656 32.957031 -37.769531 34.5625 -40.28125 C 36.175781 -42.789062 37.078125 -45.4375 37.265625 -48.21875 C 37.265625 -49.457031 37.976562 -50.234375 39.40625 -50.546875 C 40.269531 -50.671875 41.210938 -50.765625 42.234375 -50.828125 C 43.253906 -50.890625 44.132812 -50.921875 44.875 -50.921875 C 45.5625 -50.921875 46.289062 -50.90625 47.0625 -50.875 C 47.832031 -50.84375 48.65625 -50.734375 49.53125 -50.546875 C 51.070312 -50.234375 51.8125 -49.457031 51.75 -48.21875 C 51.695312 -44.570312 51.109375 -41.351562 49.984375 -38.5625 C 48.867188 -35.769531 46.914062 -33.472656 44.125 -31.671875 C 41.34375 -29.878906 37.414062 -28.582031 32.34375 -27.78125 C 31.53125 -27.65625 31.125 -27.375 31.125 -26.9375 C 31.125 -26.507812 31.53125 -26.234375 32.34375 -26.109375 C 37.914062 -25.429688 42.25 -24.113281 45.34375 -22.15625 C 48.4375 -20.207031 50.679688 -17.59375 52.078125 -14.3125 C 53.472656 -11.03125 54.359375 -7.003906 54.734375 -2.234375 C 54.796875 -0.992188 54.019531 -0.21875 52.40625 0.09375 C 51.476562 0.21875 50.59375 0.296875 49.75 0.328125 C 48.914062 0.359375 48.222656 0.375 47.671875 0.375 C 46.984375 0.375 46.003906 0.359375 44.734375 0.328125 C 43.472656 0.296875 42.3125 0.21875 41.25 0.09375 C 39.832031 -0.21875 39.0625 -0.960938 38.9375 -2.140625 C 38.8125 -5.109375 38.144531 -7.785156 36.9375 -10.171875 C 35.726562 -12.554688 34.207031 -14.597656 32.375 -16.296875 C 30.550781 -18.003906 28.570312 -19.320312 26.4375 -20.25 C 24.300781 -21.1875 22.210938 -21.65625 20.171875 -21.65625 C 19.171875 -21.65625 18.316406 -21.25 17.609375 -20.4375 C 16.898438 -19.632812 16.515625 -18.613281 16.453125 -17.375 C 16.390625 -14.894531 16.429688 -12.476562 16.578125 -10.125 C 16.734375 -7.769531 17 -5.265625 17.375 -2.609375 C 17.5 -1.859375 17.34375 -1.25 16.90625 -0.78125 C 16.476562 -0.320312 15.921875 -0.03125 15.234375 0.09375 C 14.554688 0.15625 13.738281 0.21875 12.78125 0.28125 C 11.820312 0.34375 11 0.375 10.3125 0.375 Z M 10.3125 0.375 "/></g></g><g clip-rule="nonzero" clip-path="url(#46bcdbb80a)"><g clip-rule="nonzero" clip-path="url(#35282232b0)"><path style=" stroke:none;fill-rule:nonzero;fill:#ebe497;fill-opacity:1;" d="M 109.875 183.601562 L 128.773438 183.601562 L 128.773438 222.507812 L 109.875 222.507812 Z M 109.875 183.601562 "/></g></g><g clip-rule="nonzero" clip-path="url(#4646cf9036)"><g clip-rule="nonzero" clip-path="url(#870a737b6e)"><path style=" stroke:none;fill-rule:nonzero;fill:#ebe497;fill-opacity:1;" d="M 110.25 213.226562 L 120.382812 213.226562 L 120.382812 223.050781 L 110.25 223.050781 Z M 110.25 213.226562 "/></g></g><g clip-rule="nonzero" clip-path="url(#4d23230955)"><g clip-rule="nonzero" clip-path="url(#66ba8460b2)"><path style=" stroke:none;fill-rule:nonzero;fill:#ebe497;fill-opacity:1;" d="M 109.875 215.101562 L 119.113281 215.101562 L 119.113281 223.199219 L 109.875 223.199219 Z M 109.875 215.101562 "/></g></g><g clip-rule="nonzero" clip-path="url(#0e1524a71e)"><g clip-rule="nonzero" clip-path="url(#9b39ae9c27)"><path style=" stroke:none;fill-rule:nonzero;fill:#ebe497;fill-opacity:1;" d="M 110.550781 216 L 117.304688 216 L 117.304688 222.523438 L 110.550781 222.523438 Z M 110.550781 216 "/></g></g><g clip-rule="nonzero" clip-path="url(#74a86a0d4b)"><g clip-rule="nonzero" clip-path="url(#b72c79bd96)"><path style=" stroke:none;fill-rule:nonzero;fill:#ebe497;fill-opacity:1;" d="M 109.273438 213.898438 L 117.300781 213.898438 L 117.300781 222.960938 L 109.273438 222.960938 Z M 109.273438 213.898438 "/></g></g><g clip-rule="nonzero" clip-path="url(#26ee6c0c25)"><g clip-rule="nonzero" clip-path="url(#ab6b6da77f)"><path style=" stroke:none;fill-rule:nonzero;fill:#ebe497;fill-opacity:1;" d="M 110.25 214.648438 L 117.300781 214.648438 L 117.300781 223.269531 L 110.25 223.269531 Z M 110.25 214.648438 "/></g></g><g clip-rule="nonzero" clip-path="url(#7a94ec7abf)"><g clip-rule="nonzero" clip-path="url(#9d2b81c836)"><path style=" stroke:none;fill-rule:nonzero;fill:#ebe497;fill-opacity:1;" d="M 109.648438 215.925781 L 116.40625 215.925781 L 116.40625 222.449219 L 109.648438 222.449219 Z M 109.648438 215.925781 "/></g></g><g clip-rule="nonzero" clip-path="url(#453152f5a7)"><g clip-rule="nonzero" clip-path="url(#386e97ef47)"><path style=" stroke:none;fill-rule:nonzero;fill:#ebe497;fill-opacity:1;" d="M 109.273438 215.476562 L 116.617188 215.476562 L 116.617188 222.675781 L 109.273438 222.675781 Z M 109.273438 215.476562 "/></g></g><g clip-rule="nonzero" clip-path="url(#d3db78a097)"><g clip-rule="nonzero" clip-path="url(#f4182efb62)"><path style=" stroke:none;fill-rule:nonzero;fill:#ebe497;fill-opacity:1;" d="M 110.101562 216.601562 L 116.398438 216.601562 L 116.398438 223.417969 L 110.101562 223.417969 Z M 110.101562 216.601562 "/></g></g><g clip-rule="nonzero" clip-path="url(#ab5ef001f4)"><g clip-rule="nonzero" clip-path="url(#e11bb4bf7b)"><path style=" stroke:none;fill-rule:nonzero;fill:#ebe497;fill-opacity:1;" d="M 109.949219 214.726562 L 120.082031 214.726562 L 120.082031 224.550781 L 109.949219 224.550781 Z M 109.949219 214.726562 "/></g></g><g clip-rule="nonzero" clip-path="url(#0cdc6c0c39)"><g clip-rule="nonzero" clip-path="url(#b3961185d3)"><path style=" stroke:none;fill-rule:nonzero;fill:#ebe497;fill-opacity:1;" d="M 108.898438 214.273438 L 119.03125 214.273438 L 119.03125 224.101562 L 108.898438 224.101562 Z M 108.898438 214.273438 "/></g></g><g clip-rule="nonzero" clip-path="url(#ec0b5694b9)"><g clip-rule="nonzero" clip-path="url(#6b422287d5)"><path style=" stroke:none;fill-rule:nonzero;fill:#ebe497;fill-opacity:1;" d="M 109.050781 214.726562 L 119.183594 214.726562 L 119.183594 224.550781 L 109.050781 224.550781 Z M 109.050781 214.726562 "/></g></g><g clip-rule="nonzero" clip-path="url(#a1ff5145c1)"><g clip-rule="nonzero" clip-path="url(#fd7a9f8f61)"><path style=" stroke:none;fill-rule:nonzero;fill:#ebe497;fill-opacity:1;" d="M 109.5 214.726562 L 119.632812 214.726562 L 119.632812 224.550781 L 109.5 224.550781 Z M 109.5 214.726562 "/></g></g><g clip-rule="nonzero" clip-path="url(#afef80cf49)"><g clip-rule="nonzero" clip-path="url(#aa202efafa)"><path style=" stroke:none;fill-rule:nonzero;fill:#ebe497;fill-opacity:1;" d="M 109.5 215.023438 L 119.632812 215.023438 L 119.632812 224.851562 L 109.5 224.851562 Z M 109.5 215.023438 "/></g></g><g clip-rule="nonzero" clip-path="url(#5d7f1a847b)"><g clip-rule="nonzero" clip-path="url(#8dd36401cb)"><path style=" stroke:none;fill-rule:nonzero;fill:#ebe497;fill-opacity:1;" d="M 117.601562 187.273438 L 127.730469 187.273438 L 127.730469 197.101562 L 117.601562 197.101562 Z M 117.601562 187.273438 "/></g></g><g clip-rule="nonzero" clip-path="url(#5c306a63d0)"><g clip-rule="nonzero" clip-path="url(#67f19ab6ce)"><g clip-rule="nonzero" clip-path="url(#92b53d4fe2)"><g clip-rule="nonzero" clip-path="url(#9e03155be0)"><path style=" stroke:none;fill-rule:nonzero;fill:#3a3e6c;fill-opacity:1;" d="M 121.523438 190.199219 C 119.285156 189.964844 116.984375 190.046875 114.796875 190.4375 L 114.597656 189.300781 C 116.886719 188.898438 119.300781 188.808594 121.644531 189.058594 Z M 204.820312 184.398438 C 202.445312 183.5 200.308594 183.082031 198.292969 183.117188 L 198.277344 181.964844 C 200.4375 181.925781 202.710938 182.371094 205.226562 183.320312 Z M 103.0625 196.554688 L 102.234375 195.753906 C 102.542969 195.4375 102.855469 195.128906 103.183594 194.828125 C 104.574219 193.539062 106.164062 192.429688 107.902344 191.535156 L 108.429688 192.5625 C 106.785156 193.410156 105.28125 194.457031 103.964844 195.671875 C 103.65625 195.960938 103.355469 196.253906 103.0625 196.554688 Z M 187.242188 189.519531 L 186.308594 188.839844 C 187.898438 186.671875 189.570312 185.066406 191.429688 183.941406 L 192.027344 184.921875 C 190.300781 185.972656 188.738281 187.476562 187.242188 189.519531 Z M 133.695312 195.417969 C 132.054688 193.949219 130.148438 192.753906 128.03125 191.863281 L 128.480469 190.800781 C 130.710938 191.742188 132.726562 193.007812 134.464844 194.5625 Z M 216.878906 190.910156 C 216.03125 190.414062 215.1875 189.90625 214.335938 189.394531 C 213.230469 188.730469 212.085938 188.042969 210.945312 187.390625 L 211.515625 186.390625 C 212.667969 187.046875 213.816406 187.742188 214.929688 188.410156 C 215.777344 188.917969 216.613281 189.425781 217.445312 189.90625 L 217.175781 190.417969 Z M 95.636719 207.949219 L 94.613281 207.421875 C 95.699219 205.324219 96.773438 203.28125 97.980469 201.335938 L 98.957031 201.941406 C 97.773438 203.855469 96.710938 205.875 95.636719 207.949219 Z M 229.550781 196.671875 C 227.347656 195.925781 225.171875 195.066406 223.074219 194.113281 L 223.550781 193.0625 C 225.613281 194 227.757812 194.847656 229.921875 195.582031 Z M 180.667969 201.566406 L 179.644531 201.039062 C 180.207031 199.960938 180.765625 198.824219 181.304688 197.726562 C 181.773438 196.769531 182.25 195.804688 182.734375 194.855469 L 183.761719 195.382812 C 183.277344 196.328125 182.808594 197.285156 182.335938 198.234375 C 181.792969 199.339844 181.234375 200.480469 180.667969 201.566406 Z M 142.121094 206.167969 C 141.707031 205.574219 141.300781 204.972656 140.890625 204.371094 C 140.015625 203.089844 139.113281 201.765625 138.179688 200.503906 L 139.109375 199.820312 C 140.050781 201.097656 140.960938 202.429688 141.84375 203.722656 C 142.25 204.320312 142.65625 204.917969 143.066406 205.507812 Z M 243.097656 199.839844 C 240.804688 199.53125 238.5 199.109375 236.25 198.585938 L 236.511719 197.460938 C 238.726562 197.980469 240.992188 198.394531 243.25 198.695312 Z M 263.925781 199.578125 L 263.742188 198.4375 C 265.765625 198.109375 267.792969 197.6875 269.765625 197.179688 L 270.054688 198.292969 C 268.046875 198.8125 265.984375 199.242188 263.925781 199.578125 Z M 257.003906 200.34375 C 254.695312 200.484375 252.351562 200.511719 250.039062 200.429688 L 250.078125 199.277344 C 252.359375 199.363281 254.664062 199.332031 256.933594 199.195312 Z M 171.90625 212.4375 L 171.1875 211.539062 C 172.910156 210.160156 174.519531 208.542969 175.96875 206.742188 L 176.867188 207.460938 C 175.363281 209.332031 173.695312 211.003906 171.90625 212.4375 Z M 88.308594 219.789062 L 87.441406 219.03125 C 88.785156 217.496094 90.027344 215.730469 91.351562 213.476562 L 92.34375 214.0625 C 90.980469 216.378906 89.699219 218.199219 88.308594 219.789062 Z M 152.027344 215.988281 C 150.054688 215.007812 148.222656 213.601562 146.421875 211.675781 L 147.261719 210.886719 C 148.96875 212.710938 150.691406 214.039062 152.539062 214.957031 Z M 55.902344 226.058594 C 53.726562 225.039062 51.742188 223.734375 50.007812 222.1875 L 50.773438 221.328125 C 52.425781 222.800781 54.316406 224.042969 56.390625 225.015625 Z M 160.21875 217.542969 C 159.796875 217.578125 159.371094 217.597656 158.957031 217.601562 L 158.949219 216.449219 C 161.066406 216.433594 163.253906 215.957031 165.4375 215.035156 L 165.882812 216.09375 C 163.992188 216.894531 162.085938 217.382812 160.21875 217.542969 Z M 76.554688 227.316406 L 76.210938 226.21875 C 78.402344 225.53125 80.464844 224.585938 82.335938 223.402344 L 82.949219 224.375 C 80.996094 225.613281 78.839844 226.601562 76.554688 227.316406 Z M 69.636719 228.585938 C 67.277344 228.730469 64.914062 228.59375 62.613281 228.179688 L 62.820312 227.046875 C 65.027344 227.445312 67.296875 227.578125 69.566406 227.433594 L 69.636719 228.585938 "/></g></g></g></g><g clip-rule="nonzero" clip-path="url(#b253679568)"><g clip-rule="nonzero" clip-path="url(#7554d0ac4b)"><g clip-rule="nonzero" clip-path="url(#81dd99ee62)"><g clip-rule="nonzero" clip-path="url(#9f0424e4d1)"><path style=" stroke:none;fill-rule:nonzero;fill:#3a3e6c;fill-opacity:1;" d="M 294.222656 208.042969 L 299.570312 192.507812 L 305.617188 190.9375 C 306.824219 190.621094 309.726562 188.828125 309.414062 187.621094 C 309.101562 186.417969 305.691406 186.261719 304.484375 186.574219 L 298.433594 188.144531 L 286.203125 177.175781 C 284.902344 176.007812 283.101562 175.570312 281.410156 176.011719 L 280.773438 176.179688 L 283.503906 179.472656 L 282.605469 179.703125 C 282.484375 179.734375 282.414062 179.859375 282.445312 179.976562 L 282.769531 181.230469 C 282.800781 181.347656 282.925781 181.421875 283.042969 181.390625 L 284.730469 180.953125 L 287.925781 184.808594 L 286.972656 185.058594 C 286.855469 185.089844 286.78125 185.210938 286.8125 185.332031 L 287.136719 186.585938 C 287.167969 186.703125 287.292969 186.773438 287.410156 186.742188 L 289.15625 186.292969 L 292.0625 189.800781 L 285.308594 191.554688 C 283.855469 191.933594 282.460938 192.488281 281.152344 193.207031 L 280.261719 191.421875 C 279.800781 190.503906 278.90625 190.011719 278.085938 190.226562 L 279.1875 194.460938 C 279.140625 194.496094 279.097656 194.527344 279.050781 194.5625 L 278.066406 195.292969 C 277.714844 195.558594 277.859375 196.117188 278.296875 196.175781 L 279.511719 196.339844 C 279.570312 196.347656 279.625 196.351562 279.679688 196.359375 L 280.78125 200.597656 C 281.601562 200.382812 282.144531 199.519531 282.097656 198.492188 L 282.007812 196.496094 C 283.5 196.488281 284.988281 196.296875 286.441406 195.917969 L 293.195312 194.164062 L 292.363281 198.644531 L 290.621094 199.097656 C 290.5 199.128906 290.429688 199.253906 290.460938 199.371094 L 290.785156 200.625 C 290.816406 200.742188 290.9375 200.816406 291.058594 200.785156 L 292.011719 200.539062 L 291.097656 205.460938 L 289.410156 205.898438 C 289.292969 205.933594 289.21875 206.054688 289.25 206.175781 L 289.578125 207.425781 C 289.605469 207.546875 289.730469 207.617188 289.847656 207.585938 L 290.746094 207.355469 L 289.964844 211.558594 L 290.601562 211.394531 C 292.292969 210.953125 293.652344 209.699219 294.222656 208.042969 "/></g></g></g></g><g clip-rule="nonzero" clip-path="url(#abdb3cdf17)"><g clip-rule="nonzero" clip-path="url(#90adc56afa)"><path style=" stroke:none;fill-rule:nonzero;fill:#ebe497;fill-opacity:1;" d="M 109.726562 177.601562 L 125.324219 177.601562 L 125.324219 199.171875 L 109.726562 199.171875 Z M 109.726562 177.601562 "/></g></g><g clip-rule="nonzero" clip-path="url(#4328dc39dd)"><g clip-rule="nonzero" clip-path="url(#3c99988e24)"><path style=" stroke:none;fill-rule:nonzero;fill:#ebe497;fill-opacity:1;" d="M 205.726562 163.273438 L 220.875 163.273438 L 220.875 188.191406 L 205.726562 188.191406 Z M 205.726562 163.273438 "/></g></g><g clip-rule="nonzero" clip-path="url(#65ba0a28b0)"><g clip-rule="nonzero" clip-path="url(#22afe1df39)"><path style=" stroke:none;fill-rule:nonzero;fill:#ebe497;fill-opacity:1;" d="M 207.300781 172.949219 L 221.699219 172.949219 L 221.699219 196.40625 L 207.300781 196.40625 Z M 207.300781 172.949219 "/></g></g><g clip-rule="nonzero" clip-path="url(#ec285b4972)"><g clip-rule="nonzero" clip-path="url(#0c22bb0e85)"><path style=" stroke:none;fill-rule:nonzero;fill:#ebe497;fill-opacity:1;" d="M 243.976562 193.648438 L 256.726562 193.648438 L 256.726562 207.296875 L 243.976562 207.296875 Z M 243.976562 193.648438 "/></g></g><g clip-rule="nonzero" clip-path="url(#bd36fba60c)"><g clip-rule="nonzero" clip-path="url(#50ab3b5b23)"><path style=" stroke:none;fill-rule:nonzero;fill:#ebe497;fill-opacity:1;" d="M 247.648438 194.324219 L 257.78125 194.324219 L 257.78125 204.148438 L 247.648438 204.148438 Z M 247.648438 194.324219 "/></g></g><g clip-rule="nonzero" clip-path="url(#444f8893fe)"><g clip-rule="nonzero" clip-path="url(#f648acf0f3)"><path style=" stroke:none;fill-rule:nonzero;fill:#ebe497;fill-opacity:1;" d="M 247.648438 193.800781 L 257.78125 193.800781 L 257.78125 203.625 L 247.648438 203.625 Z M 247.648438 193.800781 "/></g></g><g clip-rule="nonzero" clip-path="url(#f3620622c8)"><g clip-rule="nonzero" clip-path="url(#606c099967)"><path style=" stroke:none;fill-rule:nonzero;fill:#ebe497;fill-opacity:1;" d="M 244.125 193.574219 L 259.378906 193.574219 L 259.378906 208.199219 L 244.125 208.199219 Z M 244.125 193.574219 "/></g></g><g clip-rule="nonzero" clip-path="url(#0b4c6f6102)"><g clip-rule="nonzero" clip-path="url(#fb699c14a7)"><path style=" stroke:none;fill-rule:nonzero;fill:#ebe497;fill-opacity:1;" d="M 243.824219 192.898438 L 259.5 192.898438 L 259.5 209.1875 L 243.824219 209.1875 Z M 243.824219 192.898438 "/></g></g><g clip-rule="nonzero" clip-path="url(#25252621ba)"><g clip-rule="nonzero" clip-path="url(#92654c2b2a)"><path style=" stroke:none;fill-rule:nonzero;fill:#ebe497;fill-opacity:1;" d="M 243.074219 192.523438 L 259.5 192.523438 L 259.5 214.660156 L 243.074219 214.660156 Z M 243.074219 192.523438 "/></g></g><g clip-rule="nonzero" clip-path="url(#8108b8fb07)"><g clip-rule="nonzero" clip-path="url(#48f83d92d8)"><path style=" stroke:none;fill-rule:nonzero;fill:#ebe497;fill-opacity:1;" d="M 237.375 194.925781 L 249.449219 194.925781 L 249.449219 208.414062 L 237.375 208.414062 Z M 237.375 194.925781 "/></g></g><g clip-rule="nonzero" clip-path="url(#528b398a2b)"><g clip-rule="nonzero" clip-path="url(#45e9d14256)"><path style=" stroke:none;fill-rule:nonzero;fill:#ebe497;fill-opacity:1;" d="M 236.851562 192.523438 L 250.199219 192.523438 L 250.199219 208.324219 L 236.851562 208.324219 Z M 236.851562 192.523438 "/></g></g><g clip-rule="nonzero" clip-path="url(#7253c557be)"><g clip-rule="nonzero" clip-path="url(#17d491eeff)"><path style=" stroke:none;fill-rule:nonzero;fill:#ebe497;fill-opacity:1;" d="M 143.625 205.5 L 156 205.5 L 156 218.261719 L 143.625 218.261719 Z M 143.625 205.5 "/></g></g><g clip-rule="nonzero" clip-path="url(#afc45ebb5e)"><g clip-rule="nonzero" clip-path="url(#b9624e1dde)"><path style=" stroke:none;fill-rule:nonzero;fill:#ebe497;fill-opacity:1;" d="M 142.726562 206.175781 L 157.199219 206.175781 L 157.199219 219.601562 L 142.726562 219.601562 Z M 142.726562 206.175781 "/></g></g><g clip-rule="nonzero" clip-path="url(#139a0bb88f)"><g clip-rule="nonzero" clip-path="url(#9d86f7563f)"><path style=" stroke:none;fill-rule:nonzero;fill:#ebe497;fill-opacity:1;" d="M 154.648438 201.75 L 180.480469 201.75 L 180.480469 221.851562 L 154.648438 221.851562 Z M 154.648438 201.75 "/></g></g><g clip-rule="nonzero" clip-path="url(#67ce0ac3ce)"><g clip-rule="nonzero" clip-path="url(#2e9533023d)"><g clip-rule="nonzero" clip-path="url(#e6b251b0f0)"><g clip-rule="nonzero" clip-path="url(#f8fd55b5bb)"><path style=" stroke:none;fill-rule:nonzero;fill:#3a3e6c;fill-opacity:1;" d="M 162.4375 279.355469 C 162.511719 281.605469 162.910156 283.875 163.589844 285.984375 L 162.492188 286.339844 C 161.78125 284.125 161.363281 281.75 161.289062 279.394531 Z M 145.289062 197.636719 C 144.726562 200.113281 144.601562 202.285156 144.914062 204.277344 L 143.773438 204.453125 C 143.441406 202.316406 143.570312 200.003906 144.167969 197.382812 Z M 171.257812 296.773438 L 170.578125 297.703125 C 170.222656 297.445312 169.875 297.171875 169.53125 296.890625 C 168.0625 295.6875 166.75 294.265625 165.625 292.664062 L 166.566406 292.003906 C 167.632812 293.519531 168.875 294.863281 170.261719 296 C 170.589844 296.269531 170.921875 296.527344 171.257812 296.773438 Z M 152.769531 214.351562 L 152.222656 215.363281 C 149.855469 214.089844 148.039062 212.652344 146.667969 210.964844 L 147.5625 210.238281 C 148.835938 211.804688 150.539062 213.148438 152.769531 214.351562 Z M 165.941406 266.582031 C 164.710938 268.414062 163.789062 270.464844 163.191406 272.683594 L 162.078125 272.382812 C 162.707031 270.042969 163.6875 267.875 164.984375 265.941406 Z M 150.089844 184.800781 C 149.714844 185.710938 149.328125 186.613281 148.9375 187.527344 C 148.429688 188.714844 147.90625 189.941406 147.414062 191.160156 L 146.34375 190.734375 C 146.839844 189.5 147.367188 188.269531 147.878906 187.074219 C 148.265625 186.167969 148.652344 185.265625 149.019531 184.378906 L 149.5625 184.574219 Z M 183.5625 302.570312 L 183.179688 303.65625 C 180.953125 302.867188 178.785156 302.082031 176.691406 301.152344 L 177.15625 300.101562 C 179.214844 301.015625 181.359375 301.789062 183.5625 302.570312 Z M 154.0625 171.457031 C 153.625 173.742188 153.070312 176.019531 152.414062 178.226562 L 151.308594 177.898438 C 151.953125 175.726562 152.5 173.488281 152.929688 171.242188 Z M 165.601562 219.214844 L 165.21875 220.296875 C 164.074219 219.890625 162.875 219.492188 161.710938 219.109375 C 160.699219 218.773438 159.679688 218.4375 158.667969 218.082031 L 159.050781 216.996094 C 160.054688 217.34375 161.066406 217.679688 162.074219 218.015625 C 163.242188 218.402344 164.449219 218.800781 165.601562 219.214844 Z M 175.433594 256.769531 C 174.902344 257.257812 174.363281 257.746094 173.824219 258.234375 C 172.675781 259.273438 171.484375 260.351562 170.363281 261.445312 L 169.558594 260.621094 C 170.695312 259.511719 171.890625 258.425781 173.050781 257.378906 C 173.589844 256.890625 174.125 256.40625 174.652344 255.921875 Z M 155.347656 157.605469 C 155.355469 159.921875 155.253906 162.261719 155.039062 164.5625 L 153.894531 164.457031 C 154.101562 162.191406 154.203125 159.890625 154.195312 157.609375 Z M 152.234375 137.011719 L 151.132812 137.351562 C 150.53125 135.386719 149.835938 133.4375 149.058594 131.554688 L 150.125 131.117188 C 150.914062 133.035156 151.621094 135.019531 152.234375 137.011719 Z M 153.945312 143.761719 C 154.398438 146.027344 154.746094 148.347656 154.980469 150.652344 L 153.835938 150.769531 C 153.605469 148.5 153.261719 146.21875 152.816406 143.992188 Z M 177.570312 226.402344 L 176.777344 227.238281 C 175.175781 225.722656 173.355469 224.351562 171.371094 223.160156 L 171.960938 222.171875 C 174.019531 223.40625 175.90625 224.828125 177.570312 226.402344 Z M 196.292969 308.207031 L 195.664062 309.171875 C 193.957031 308.050781 192.039062 307.0625 189.625 306.058594 L 190.066406 304.996094 C 192.550781 306.027344 194.527344 307.046875 196.292969 308.207031 Z M 183.808594 245.609375 C 183.109375 247.699219 181.960938 249.707031 180.300781 251.753906 L 179.40625 251.027344 C 180.980469 249.089844 182.058594 247.199219 182.714844 245.246094 Z M 206.9375 339.453125 C 206.226562 341.75 205.207031 343.890625 203.910156 345.824219 L 202.953125 345.179688 C 204.1875 343.34375 205.160156 341.300781 205.839844 339.109375 Z M 184.226562 237.285156 C 184.316406 237.695312 184.394531 238.113281 184.457031 238.527344 L 183.316406 238.691406 C 183.011719 236.597656 182.238281 234.492188 181.027344 232.457031 L 182.015625 231.871094 C 183.070312 233.636719 183.8125 235.457031 184.226562 237.285156 Z M 205.359375 318.824219 L 204.316406 319.3125 C 203.339844 317.234375 202.117188 315.324219 200.6875 313.632812 L 201.570312 312.890625 C 203.0625 314.65625 204.339844 316.65625 205.359375 318.824219 Z M 207.5625 325.503906 C 208.03125 327.820312 208.21875 330.179688 208.121094 332.511719 L 206.972656 332.464844 C 207.0625 330.222656 206.882812 327.957031 206.433594 325.730469 L 207.5625 325.503906 "/></g></g></g></g><g clip-rule="nonzero" clip-path="url(#2c2700825c)"><g clip-rule="nonzero" clip-path="url(#d81e6b07c8)"><g clip-rule="nonzero" clip-path="url(#ca715d8703)"><g clip-rule="nonzero" clip-path="url(#d2ebafaa16)"><path style=" stroke:none;fill-rule:nonzero;fill:#3a3e6c;fill-opacity:1;" d="M 219.660156 251.515625 C 221.359375 252.988281 223.296875 254.238281 225.308594 255.167969 L 224.824219 256.214844 C 222.714844 255.234375 220.683594 253.925781 218.90625 252.382812 Z M 148.03125 208.601562 C 149.464844 210.699219 150.976562 212.261719 152.648438 213.386719 L 152.003906 214.34375 C 150.210938 213.136719 148.601562 211.472656 147.082031 209.253906 Z M 238.433594 256.871094 L 238.65625 258 C 238.222656 258.082031 237.785156 258.15625 237.347656 258.21875 C 235.46875 258.476562 233.53125 258.476562 231.59375 258.214844 L 231.746094 257.070312 C 233.582031 257.320312 235.414062 257.320312 237.1875 257.078125 C 237.609375 257.019531 238.023438 256.949219 238.433594 256.871094 Z M 165.378906 214.460938 L 165.753906 215.550781 C 163.207031 216.421875 160.917969 216.78125 158.75 216.640625 L 158.824219 215.492188 C 160.835938 215.621094 162.980469 215.28125 165.378906 214.460938 Z M 212.664062 240.269531 C 213.171875 242.414062 214.050781 244.484375 215.273438 246.425781 L 214.296875 247.042969 C 213.003906 244.992188 212.078125 242.800781 211.542969 240.53125 Z M 141.871094 196.363281 C 142.28125 197.25 142.683594 198.152344 143.089844 199.058594 C 143.617188 200.238281 144.160156 201.457031 144.722656 202.644531 L 143.679688 203.136719 C 143.113281 201.9375 142.566406 200.710938 142.035156 199.527344 C 141.632812 198.625 141.234375 197.730469 140.832031 196.859375 L 141.34375 196.59375 Z M 251.046875 251.773438 L 251.582031 252.792969 C 249.492188 253.890625 247.441406 254.949219 245.339844 255.855469 L 244.882812 254.800781 C 246.949219 253.910156 248.976562 252.863281 251.046875 251.773438 Z M 134.773438 184.382812 C 136.152344 186.257812 137.449219 188.207031 138.621094 190.1875 L 137.632812 190.777344 C 136.476562 188.828125 135.203125 186.90625 133.847656 185.066406 Z M 177.664062 208.34375 L 178.199219 209.363281 C 177.121094 209.925781 176.015625 210.539062 174.945312 211.128906 C 174.011719 211.644531 173.070312 212.164062 172.125 212.667969 L 171.585938 211.648438 C 172.523438 211.148438 173.457031 210.632812 174.386719 210.121094 C 175.464844 209.527344 176.578125 208.914062 177.664062 208.34375 Z M 211.90625 226.632812 C 211.90625 227.359375 211.894531 228.082031 211.886719 228.808594 C 211.871094 230.359375 211.851562 231.964844 211.894531 233.53125 L 210.742188 233.5625 C 210.699219 231.976562 210.71875 230.359375 210.734375 228.796875 C 210.746094 228.074219 210.75 227.351562 210.753906 226.632812 Z M 125.476562 174.03125 C 127.183594 175.597656 128.832031 177.261719 130.375 178.980469 L 129.519531 179.75 C 128 178.058594 126.378906 176.421875 124.699219 174.882812 Z M 108.25 162.328125 L 107.75 163.367188 C 105.902344 162.476562 103.996094 161.667969 102.085938 160.953125 L 102.488281 159.875 C 104.429688 160.597656 106.367188 161.425781 108.25 162.328125 Z M 114.367188 165.660156 C 116.335938 166.867188 118.273438 168.183594 120.125 169.578125 L 119.433594 170.5 C 117.613281 169.125 115.703125 167.828125 113.765625 166.644531 Z M 191.066406 204.445312 L 191.144531 205.59375 C 188.941406 205.738281 186.699219 206.144531 184.476562 206.792969 L 184.152344 205.6875 C 186.457031 205.015625 188.78125 204.597656 191.066406 204.445312 Z M 263.828125 246.257812 L 264.105469 247.375 C 262.128906 247.867188 260.097656 248.601562 257.722656 249.695312 L 257.242188 248.648438 C 259.6875 247.527344 261.777344 246.765625 263.828125 246.257812 Z M 209.402344 212.910156 C 210.460938 214.839844 211.15625 217.046875 211.53125 219.65625 L 210.390625 219.820312 C 210.035156 217.347656 209.382812 215.269531 208.390625 213.464844 Z M 293.992188 259.664062 C 295.195312 261.746094 296.074219 263.949219 296.613281 266.210938 L 295.492188 266.480469 C 294.980469 264.324219 294.140625 262.226562 292.996094 260.238281 Z M 203.574219 206.949219 C 203.941406 207.160156 204.300781 207.386719 204.644531 207.621094 L 203.992188 208.570312 C 202.246094 207.371094 200.175781 206.511719 197.859375 206.019531 L 198.101562 204.894531 C 200.113281 205.320312 201.953125 206.011719 203.574219 206.949219 Z M 277.777344 246.8125 L 277.429688 247.910156 C 275.242188 247.21875 273.007812 246.816406 270.796875 246.714844 L 270.847656 245.566406 C 273.160156 245.667969 275.492188 246.089844 277.777344 246.8125 Z M 284.175781 249.730469 C 286.195312 250.964844 288.054688 252.425781 289.703125 254.082031 L 288.886719 254.894531 C 287.304688 253.304688 285.515625 251.898438 283.578125 250.714844 L 284.175781 249.730469 "/></g></g></g></g><g clip-rule="nonzero" clip-path="url(#4a6c422c2d)"><g clip-rule="nonzero" clip-path="url(#44a41a4cf1)"><g clip-rule="nonzero" clip-path="url(#e798b1fdb7)"><g clip-rule="nonzero" clip-path="url(#a805467f5f)"><path style=" stroke:none;fill-rule:nonzero;fill:#3a3e6c;fill-opacity:1;" d="M 241.519531 200.671875 C 243.765625 200.71875 246.054688 200.445312 248.199219 199.878906 L 248.492188 200.992188 C 246.246094 201.585938 243.847656 201.875 241.492188 201.824219 Z M 158.992188 213.398438 C 161.4375 214.09375 163.597656 214.335938 165.605469 214.132812 L 165.71875 215.277344 C 163.566406 215.496094 161.265625 215.242188 158.675781 214.507812 Z M 259.386719 192.800781 L 260.277344 193.53125 C 259.996094 193.871094 259.707031 194.207031 259.410156 194.535156 C 258.128906 195.933594 256.636719 197.167969 254.976562 198.207031 L 254.367188 197.230469 C 255.9375 196.246094 257.347656 195.078125 258.558594 193.757812 C 258.84375 193.445312 259.117188 193.125 259.386719 192.800781 Z M 176.085938 206.828125 L 177.070312 207.429688 C 175.667969 209.722656 174.132812 211.460938 172.378906 212.738281 L 171.699219 211.808594 C 173.332031 210.621094 174.765625 208.992188 176.085938 206.828125 Z M 228.953125 196.488281 C 230.710938 197.8125 232.710938 198.847656 234.894531 199.558594 L 234.535156 200.65625 C 232.230469 199.902344 230.121094 198.808594 228.257812 197.40625 Z M 146.433594 207.914062 C 147.320312 208.335938 148.203125 208.773438 149.097656 209.210938 C 150.253906 209.78125 151.453125 210.371094 152.640625 210.925781 L 152.15625 211.972656 C 150.953125 211.414062 149.75 210.816406 148.585938 210.246094 C 147.699219 209.808594 146.820312 209.375 145.953125 208.960938 L 146.179688 208.429688 Z M 265.835938 180.828125 L 266.898438 181.269531 C 265.992188 183.449219 265.089844 185.574219 264.050781 187.613281 L 263.023438 187.089844 C 264.046875 185.085938 264.9375 182.984375 265.835938 180.828125 Z M 133.324219 203.230469 C 135.582031 203.789062 137.824219 204.464844 139.992188 205.242188 L 139.605469 206.324219 C 137.472656 205.5625 135.265625 204.898438 133.046875 204.347656 Z M 181.632812 194.277344 L 182.695312 194.71875 C 182.226562 195.839844 181.761719 197.015625 181.316406 198.15625 C 180.929688 199.148438 180.535156 200.148438 180.128906 201.136719 L 179.0625 200.699219 C 179.46875 199.714844 179.855469 198.722656 180.246094 197.734375 C 180.695312 196.589844 181.15625 195.40625 181.632812 194.277344 Z M 219.660156 186.480469 C 220.121094 187.039062 220.578125 187.601562 221.039062 188.164062 C 222.015625 189.371094 223.027344 190.617188 224.058594 191.792969 L 223.191406 192.554688 C 222.144531 191.359375 221.128906 190.105469 220.140625 188.890625 C 219.6875 188.328125 219.230469 187.769531 218.773438 187.214844 Z M 119.5625 201.203125 C 121.875 201.316406 124.207031 201.546875 126.492188 201.882812 L 126.324219 203.023438 C 124.074219 202.691406 121.78125 202.464844 119.503906 202.351562 Z M 98.828125 203.199219 L 99.109375 204.320312 C 97.117188 204.8125 95.132812 205.40625 93.207031 206.078125 L 92.828125 204.988281 C 94.785156 204.308594 96.804688 203.703125 98.828125 203.199219 Z M 105.664062 201.855469 C 107.949219 201.527344 110.285156 201.300781 112.597656 201.195312 L 112.652344 202.34375 C 110.375 202.449219 108.078125 202.671875 105.828125 202.996094 Z M 189.453125 182.714844 L 190.246094 183.546875 C 188.644531 185.066406 187.175781 186.8125 185.882812 188.730469 L 184.929688 188.085938 C 186.269531 186.097656 187.792969 184.289062 189.453125 182.714844 Z M 272.148438 168.417969 L 273.074219 169.101562 C 271.867188 170.742188 270.777344 172.605469 269.644531 174.960938 L 268.605469 174.464844 C 269.769531 172.039062 270.894531 170.121094 272.148438 168.417969 Z M 208.96875 177.515625 C 211.015625 178.328125 212.960938 179.582031 214.914062 181.347656 L 214.140625 182.203125 C 212.292969 180.527344 210.460938 179.347656 208.546875 178.589844 Z M 303.921875 159.46875 C 306.175781 160.304688 308.261719 161.4375 310.117188 162.835938 L 309.425781 163.757812 C 307.65625 162.425781 305.667969 161.347656 303.519531 160.550781 Z M 200.675781 176.652344 C 201.09375 176.582031 201.515625 176.527344 201.929688 176.488281 L 202.035156 177.636719 C 199.925781 177.828125 197.785156 178.484375 195.6875 179.585938 L 195.152344 178.566406 C 196.972656 177.609375 198.832031 176.96875 200.675781 176.652344 Z M 283.238281 159.9375 L 283.671875 161.003906 C 281.542969 161.867188 279.566406 162.984375 277.800781 164.320312 L 277.109375 163.402344 C 278.953125 162.007812 281.015625 160.839844 283.238281 159.9375 Z M 290.023438 158.097656 C 292.363281 157.753906 294.730469 157.691406 297.054688 157.914062 L 296.945312 159.0625 C 294.710938 158.847656 292.4375 158.90625 290.191406 159.238281 L 290.023438 158.097656 "/></g></g></g></g></g></svg>